<svg width="400" height="400" viewBox="0 0 400 400" fill="none" xmlns="http://www.w3.org/2000/svg">
<g clip-path="url(#clip0_560_1140)">
<path fill-rule="evenodd" clip-rule="evenodd" d="M296.875 16.4444C289.531 8.08889 283.594 1.06667 283.594 0.71111V0.622223C283.594 0.266667 299.922 0 356.25 0V41.3333C356.25 64.0889 356.016 82.6667 355.703 82.6667C355.312 82.6667 349.297 76.0889 329.297 53.3333L211.562 181.778L207.031 176.444C204.609 173.511 192.812 159.467 180.859 145.333C168.906 131.2 158.203 118.4 155.078 114.578L87.1875 193.067C49.8438 236.267 19.0625 271.644 18.8281 271.822C18.5937 271.911 14.2188 267.289 0.078125 251.111L67.6562 172.889C73.4248 166.215 79.137 159.606 84.7289 153.135C115.186 117.894 142.075 86.781 155.078 71.9111L183.359 105.244C198.984 123.644 211.875 138.756 212.109 138.933C212.344 139.022 234.453 115.2 261.328 86.0444C288.203 56.8 310.156 32.6222 310.156 32.2667C310.156 31.8222 304.219 24.8 296.875 16.4444ZM311.719 400.089V260.089V120.089H400V400.089H311.719ZM65.2344 399.644L65 328.711L64.8438 257.867H153.906V400.089L65.2344 399.644Z" fill="#FF764A"/>
<path d="M188.281 306.756V400.089H276.562V213.422H188.281V306.756Z" fill="#FF764A"/>
</g>
<defs>
<clipPath id="clip0_560_1140">
<rect width="400" height="400" fill="white"/>
</clipPath>
</defs>
</svg>
