<svg width="400" height="400" viewBox="0 0 400 400" fill="none" xmlns="http://www.w3.org/2000/svg">
<g clip-path="url(#clip0_560_1130)">
<path fill-rule="evenodd" clip-rule="evenodd" d="M29.2969 30.9524C27.5781 32.1905 25.5469 34.6667 24.8438 36.381C23.5938 39.3333 23.5156 50.5714 23.4375 199.81C23.4375 355.048 23.5156 360.095 24.9219 363.619C25.7812 365.619 27.6562 368 29.375 369.238L32.4219 371.333C365.625 371.429 367.188 371.429 370.312 369.524C372.396 368.254 373.958 366.349 375 363.81C376.562 360 376.562 358.095 376.562 200C376.562 41.9048 376.562 40 375 36.1905C373.958 33.6508 372.396 31.746 370.312 30.4762C367.188 28.5714 365.625 28.5714 199.766 28.5714H32.4219L29.2969 30.9524ZM205.625 116C167.188 92.4762 155.625 85.8095 153.359 85.7143H153.281C151.719 85.7143 149.297 86.5714 147.969 87.5238C146.562 88.5714 144.609 91.0476 143.438 93.0476L141.406 96.7619C141.406 215.333 141.484 217.333 142.969 221.048C144.01 223.587 145.573 225.492 147.656 226.762C149.375 227.81 152.031 228.667 153.516 228.667C155.547 228.667 168.984 220.857 205.625 198.381C253.203 169.238 255.156 168 256.797 164.381C257.812 162.286 258.594 159.048 258.594 157.238C258.594 155.333 257.812 152.19 256.797 150.095C255.156 146.381 253.203 145.143 205.625 116ZM114.531 258.476C112.344 257.81 108.516 257.238 105.938 257.333C103.359 257.333 99.6875 257.905 97.7344 258.571C95.7812 259.143 92.4219 260.762 90.3125 262C88.125 263.333 84.2969 266.857 81.6406 270C78.9062 273.333 76.0938 277.905 75 280.762L73.125 285.81C57.8906 285.81 55.7812 286.095 53.2031 287.714C51.1198 288.984 49.5573 290.889 48.5156 293.429C47.6562 295.524 46.9531 298.476 46.9531 300.095C46.9531 301.619 47.6562 304.667 48.5156 306.762C49.5573 309.302 51.1198 311.206 53.2031 312.476C55.7812 314 57.8906 314.381 64.6875 314.286H73.125C76.0938 322.19 78.9062 326.762 81.6406 330.095C84.2969 333.238 88.125 336.762 90.3125 338.095C92.4219 339.333 95.9375 340.952 98.125 341.619C100.234 342.286 103.984 342.857 106.328 342.857C108.672 342.857 112.344 342.286 114.531 341.619C116.641 340.952 120.156 339.333 122.344 338.095C124.453 336.762 127.969 333.81 130.156 331.429C132.422 328.857 135.234 324.381 136.797 320.667L139.531 314.381C342.266 314.381 343.906 314.286 346.953 312.476C349.036 311.206 350.599 309.302 351.641 306.762C352.5 304.667 353.203 301.619 353.203 300.095C353.203 298.476 352.5 295.524 351.641 293.429C350.599 290.889 349.036 288.984 346.953 287.714C343.906 285.81 342.266 285.81 241.641 285.81H139.531C136.562 278 133.516 273.143 130.938 270C128.359 266.857 124.453 263.238 122.344 262C120.156 260.762 116.641 259.143 114.531 258.476Z" fill="#FF764A"/>
<path d="M165.312 190.571C165.547 190.571 177.812 183.143 192.656 174.095C207.5 165.048 219.609 157.429 219.609 157.238C219.609 156.952 207.5 149.333 192.656 140.286C177.812 131.238 165.547 123.905 165.312 123.905C165.078 123.905 164.922 138.857 164.922 157.238C164.922 175.524 165.078 190.571 165.312 190.571Z" fill="white"/>
<path d="M96.0156 293.619C95.3125 295.333 94.6875 298.095 94.6094 299.81C94.6094 301.524 95.3125 304.476 96.0938 306.476C96.9531 308.571 98.8281 310.952 100.547 312.19C102.266 313.333 104.766 314.286 106.094 314.286C107.5 314.286 110 313.524 111.562 312.571C113.281 311.524 115.234 309.143 116.25 307.048C117.188 305.048 117.969 302 118.047 300.286C118.047 298.571 117.344 295.524 116.484 293.429C115.443 290.889 113.88 288.984 111.797 287.714C110.078 286.667 107.5 285.81 106.094 285.81C104.766 285.81 102.188 286.857 100.469 288.095C98.75 289.429 96.7188 291.81 96.0156 293.619Z" fill="white"/>
<path fill-rule="evenodd" clip-rule="evenodd" d="M205.625 116C167.188 92.4762 155.625 85.8095 153.359 85.7143H153.281C151.719 85.7143 149.297 86.5714 147.969 87.5238C146.562 88.5714 144.609 91.0476 143.438 93.0476L141.406 96.7619C141.406 215.333 141.484 217.333 142.969 221.048C144.01 223.587 145.573 225.492 147.656 226.762C149.375 227.81 152.031 228.667 153.516 228.667C155.547 228.667 168.984 220.857 205.625 198.381C253.203 169.238 255.156 168 256.797 164.381C257.812 162.286 258.594 159.048 258.594 157.238C258.594 155.333 257.812 152.19 256.797 150.095C255.156 146.381 253.203 145.143 205.625 116ZM192.656 174.095C177.812 183.143 165.547 190.571 165.312 190.571C165.078 190.571 164.922 175.524 164.922 157.238C164.922 138.857 165.078 123.905 165.312 123.905C165.547 123.905 177.812 131.238 192.656 140.286C207.5 149.333 219.609 156.952 219.609 157.238C219.609 157.429 207.5 165.048 192.656 174.095ZM114.531 258.476C112.344 257.81 108.516 257.238 105.938 257.333C103.359 257.333 99.6875 257.905 97.7344 258.571C95.7812 259.143 92.4219 260.762 90.3125 262C88.125 263.333 84.2969 266.857 81.6406 270C78.9062 273.333 76.0938 277.905 75 280.762L73.125 285.81C57.8906 285.81 55.7812 286.095 53.2031 287.714C51.1198 288.984 49.5573 290.889 48.5156 293.429C47.6562 295.524 46.9531 298.476 46.9531 300.095C46.9531 301.619 47.6562 304.667 48.5156 306.762C49.5573 309.302 51.1198 311.206 53.2031 312.476C55.7812 314 57.8906 314.381 64.6875 314.286H73.125C76.0938 322.19 78.9062 326.762 81.6406 330.095C84.2969 333.238 88.125 336.762 90.3125 338.095C92.4219 339.333 95.9375 340.952 98.125 341.619C100.234 342.286 103.984 342.857 106.328 342.857C108.672 342.857 112.344 342.286 114.531 341.619C116.641 340.952 120.156 339.333 122.344 338.095C124.453 336.762 127.969 333.81 130.156 331.429C132.422 328.857 135.234 324.381 136.797 320.667L139.531 314.381C342.266 314.381 343.906 314.286 346.953 312.476C349.036 311.206 350.599 309.302 351.641 306.762C352.5 304.667 353.203 301.619 353.203 300.095C353.203 298.476 352.5 295.524 351.641 293.429C350.599 290.889 349.036 288.984 346.953 287.714C343.906 285.81 342.266 285.81 241.641 285.81H139.531C136.562 278 133.516 273.143 130.938 270C128.359 266.857 124.453 263.238 122.344 262C120.156 260.762 116.641 259.143 114.531 258.476ZM94.6094 299.81C94.6875 298.095 95.3125 295.333 96.0156 293.619C96.7188 291.81 98.75 289.429 100.469 288.095C102.188 286.857 104.766 285.81 106.094 285.81C107.5 285.81 110.078 286.667 111.797 287.714C113.88 288.984 115.443 290.889 116.484 293.429C117.344 295.524 118.047 298.571 118.047 300.286C117.969 302 117.188 305.048 116.25 307.048C115.234 309.143 113.281 311.524 111.562 312.571C110 313.524 107.5 314.286 106.094 314.286C104.766 314.286 102.266 313.333 100.547 312.19C98.8281 310.952 96.9531 308.571 96.0938 306.476C95.3125 304.476 94.6094 301.524 94.6094 299.81Z" fill="black"/>
<path fill-rule="evenodd" clip-rule="evenodd" d="M370.703 0L375.781 2.19048C378.594 3.42857 382.422 5.71429 384.375 7.33333C386.328 8.85714 389.375 12.2857 391.25 14.8571C393.125 17.4286 395.312 21.4286 396.25 23.8095C397.109 26.1905 398.359 30 398.906 32.381C399.766 35.9048 400 64.5714 400 199.524C400 332.476 399.766 363.238 398.906 367.143C398.359 369.714 396.953 374.19 395.859 376.952C394.688 379.619 392.422 383.714 390.781 385.905C389.219 388.095 386.094 391.238 383.984 392.857C381.797 394.571 377.969 396.857 370.703 400H200C36.4844 400 29.1406 399.905 25.3906 398.286C23.2031 397.333 20.0781 395.714 18.3594 394.762C16.6406 393.714 13.125 390.381 10.5469 387.143C7.89062 384 5 379.238 3.98438 376.667C2.96875 374 1.64062 370 1.09375 367.619C0.234375 364.095 0 335.429 0 200.476C0 69.5238 0.234375 36.6667 1.01562 32.8571C1.5625 30.1905 2.89062 25.9048 3.90625 23.3333C4.92188 20.6667 7.89062 16 10.4688 12.8571C13.125 9.61905 16.6406 6.28571 18.3594 5.2381C20.0781 4.28571 23.0469 2.76191 25 1.80953C28.2812 0.285716 39.4531 0.190476 370.703 0ZM24.8438 36.381C25.5469 34.6667 27.5781 32.1905 29.2969 30.9524L32.4219 28.5714H199.766C365.625 28.5714 367.188 28.5714 370.312 30.4762C372.396 31.746 373.958 33.6508 375 36.1905C376.562 40 376.562 41.9048 376.562 200C376.562 358.095 376.562 360 375 363.81C373.958 366.349 372.396 368.254 370.312 369.524C367.188 371.429 365.625 371.429 32.4219 371.333L29.375 369.238C27.6562 368 25.7812 365.619 24.9219 363.619C23.5156 360.095 23.4375 355.048 23.4375 199.81C23.5156 50.5714 23.5938 39.3333 24.8438 36.381Z" fill="white"/>
</g>
<rect x="0.5" y="0.5" width="399" height="399" stroke="black"/>
<defs>
<clipPath id="clip0_560_1130">
<rect width="400" height="400" fill="white"/>
</clipPath>
</defs>
</svg>
