<svg width="400" height="400" viewBox="0 0 400 400" fill="none" xmlns="http://www.w3.org/2000/svg">
<g clip-path="url(#clip0_560_1089)">
<path fill-rule="evenodd" clip-rule="evenodd" d="M242.023 0.123794C340.078 -4.46029e-05 353.463 0.247634 361.089 1.98138C365.759 3.09593 372.14 5.20119 375.097 6.81109C378.054 8.29716 383.502 12.26 387.237 15.6037C390.973 18.9473 395.486 24.7677 400.778 35.2941V199.381C400.778 352.57 400.623 363.839 397.977 369.659C396.576 373.003 392.685 378.576 389.416 382.043C386.148 385.387 380.389 389.969 376.654 391.95C372.763 394.056 365.914 396.656 361.401 397.895C353.93 399.876 340.7 400 47.4708 400L36.5759 396.656C28.7938 394.179 23.5019 391.455 17.7432 386.997C13.5409 383.653 8.40468 378.328 6.53697 375.232C4.66927 372.136 2.49027 366.563 1.55642 362.848C0.466926 358.39 0 312.693 0 232.446C0 146.997 0.466947 106.997 1.71208 102.415C2.64594 98.9473 5.13619 93.1269 7.31518 89.7832C10.1167 85.2012 23.035 74.0557 57.2763 46.6873C82.6459 26.3777 106.615 8.29716 110.506 6.43957C114.397 4.58199 120.623 2.47673 124.514 1.60986C129.65 0.619147 161.089 0.123794 242.023 0.123794ZM131.518 87.678C124.202 95.9752 119.222 99.6903 115.953 101.176C109.883 103.901 108.327 104.025 67.2374 104.025H24.9027C23.6576 110.217 23.3463 168.297 23.6576 237.152L24.1245 362.229C31.2841 372.012 35.1751 375.108 40 377.337L47.4708 380.805H354.086C365.447 375.727 369.65 372.384 372.763 368.545L377.432 362.477C378.21 95.356 377.899 43.2198 376.809 39.0092C375.72 35.2941 373.074 30.8359 369.961 27.9876C367.315 25.2631 362.179 22.0433 358.755 20.8049C352.996 18.8235 345.058 18.5758 242.49 18.5758H132.451L131.518 87.678ZM41.2451 85.4489C104.28 85.4489 105.992 85.325 107.393 82.9721C108.327 81.486 108.949 70.0928 108.949 56.9659C108.949 43.9628 108.483 33.4365 107.86 33.4365C107.082 33.4365 91.9844 45.0773 73.93 59.4427L41.2451 85.4489ZM328.716 135.604L331.673 138.7C333.385 140.31 334.786 143.158 334.786 144.892C334.63 146.501 333.541 149.226 329.961 153.56H71.5953L69.2607 150.712C68.0156 149.226 66.9261 146.501 66.9261 144.892C66.9261 143.158 68.0156 140.557 69.4164 139.071C70.8171 137.585 73.3074 136.099 75.1751 135.851C77.0428 135.48 134.942 135.356 328.716 135.604ZM202.646 187.368C202.878 187.369 203.11 187.369 203.341 187.37C325.768 187.616 328.1 187.621 331.362 190.093C333.541 191.579 334.786 194.056 334.63 196.532C334.63 198.885 333.385 201.61 331.518 203.096C328.405 205.449 326.381 205.573 200.778 205.573C75.1751 205.573 73.1518 205.449 70.0389 203.096C68.1712 201.61 66.9261 198.885 66.9261 196.532C66.9261 194.18 68.0156 191.703 69.572 190.464C71.1284 189.474 73.463 188.235 74.7082 187.864C75.9533 187.492 133.541 187.245 202.646 187.368ZM200.623 238.885C324.358 238.885 326.07 238.885 330.428 241.362C333.541 243.344 334.63 244.954 334.63 248.297C334.63 250.898 333.385 253.498 331.518 255.108C328.405 257.461 326.381 257.585 200.778 257.585C75.1751 257.585 73.1518 257.461 70.0389 255.108C68.1712 253.622 66.9261 250.774 66.7704 248.297C66.6148 245.077 67.7043 243.467 70.9728 241.486C75.1736 239.01 76.1083 239.009 200.485 238.886C200.531 238.885 200.577 238.885 200.623 238.885ZM118.911 290.898C160.467 290.898 162.802 291.022 167.004 293.375C170.117 295.232 171.206 296.966 171.206 299.938C171.206 302.415 169.805 305.015 167.626 306.749C164.202 309.597 164.047 309.597 119.066 309.597C119.038 309.597 119.009 309.597 118.981 309.597C74.5517 309.474 73.9277 309.472 70.3502 306.749C68.3269 305.015 66.7704 302.415 66.7704 300.062C66.6148 297.09 67.7043 295.48 70.9728 293.498C75.0195 291.145 77.1984 291.022 118.911 290.898Z" fill="black"/>
<path fill-rule="evenodd" clip-rule="evenodd" d="M131.518 87.678C124.202 95.9752 119.222 99.6903 115.953 101.176C109.883 103.901 108.327 104.025 67.2374 104.025H24.9027C23.6576 110.217 23.3463 168.297 23.6576 237.152L24.1245 362.229C31.2841 372.012 35.1751 375.108 40 377.337L47.4708 380.805H354.086C365.447 375.727 369.65 372.384 372.763 368.545L377.432 362.477C378.21 95.356 377.899 43.2198 376.809 39.0092C375.72 35.2941 373.074 30.8359 369.961 27.9876C367.315 25.2631 362.179 22.0433 358.755 20.8049C352.996 18.8235 345.058 18.5758 242.49 18.5758H132.451L131.518 87.678ZM331.673 138.7L328.716 135.604C134.942 135.356 77.0428 135.48 75.1751 135.851C73.3074 136.099 70.8171 137.585 69.4164 139.071C68.0156 140.557 66.9261 143.158 66.9261 144.892C66.9261 146.501 68.0156 149.226 69.2607 150.712L71.5953 153.56H329.961C333.541 149.226 334.63 146.501 334.786 144.892C334.786 143.158 333.385 140.31 331.673 138.7ZM203.341 187.37L202.646 187.368C133.541 187.245 75.9533 187.492 74.7082 187.864C73.463 188.235 71.1284 189.474 69.572 190.464C68.0156 191.703 66.9261 194.18 66.9261 196.532C66.9261 198.885 68.1712 201.61 70.0389 203.096C73.1518 205.449 75.1751 205.573 200.778 205.573C326.381 205.573 328.405 205.449 331.518 203.096C333.385 201.61 334.63 198.885 334.63 196.532C334.786 194.056 333.541 191.579 331.362 190.093C328.1 187.621 325.768 187.616 203.341 187.37ZM330.428 241.362C326.07 238.885 324.358 238.885 200.623 238.885L200.485 238.886C76.1083 239.009 75.1736 239.01 70.9728 241.486C67.7043 243.467 66.6148 245.077 66.7704 248.297C66.9261 250.774 68.1712 253.622 70.0389 255.108C73.1518 257.461 75.1751 257.585 200.778 257.585C326.381 257.585 328.405 257.461 331.518 255.108C333.385 253.498 334.63 250.898 334.63 248.297C334.63 244.954 333.541 243.344 330.428 241.362ZM167.004 293.375C162.802 291.022 160.467 290.898 118.911 290.898C77.1984 291.022 75.0195 291.145 70.9728 293.498C67.7043 295.48 66.6148 297.09 66.7704 300.062C66.7704 302.415 68.3269 305.015 70.3502 306.749C73.9277 309.472 74.5517 309.474 118.981 309.597L119.066 309.597C164.047 309.597 164.202 309.597 167.626 306.749C169.805 305.015 171.206 302.415 171.206 299.938C171.206 296.966 170.117 295.232 167.004 293.375Z" fill="#FFB84F"/>
<path d="M41.2451 85.4489C104.28 85.4489 105.992 85.325 107.393 82.9721C108.327 81.486 108.949 70.0928 108.949 56.9659C108.949 43.9628 108.483 33.4365 107.86 33.4365C107.082 33.4365 91.9844 45.0773 73.93 59.4427L41.2451 85.4489Z" fill="white"/>
</g>
<defs>
<clipPath id="clip0_560_1089">
<rect width="400" height="400" fill="white"/>
</clipPath>
</defs>
</svg>
