<svg width="400" height="400" viewBox="0 0 400 400" fill="none" xmlns="http://www.w3.org/2000/svg">
<g clip-path="url(#clip0_560_1132)">
<path fill-rule="evenodd" clip-rule="evenodd" d="M34.9138 0.0862072L364.224 0L370.259 1.98276C373.621 3.10345 377.845 5 379.741 6.2069C381.638 7.32759 384.655 9.65517 386.552 11.2931C388.362 12.931 391.121 16.1207 392.672 18.5345C394.224 20.8621 396.552 25.8621 400 36.2069V199.397C400 345.086 399.828 363.017 398.621 367.672C397.931 370.517 396.379 374.741 395.172 377.155C393.965 379.483 391.552 383.19 389.741 385.345C387.931 387.5 384.224 390.776 381.379 392.586C378.621 394.483 373.621 396.897 364.224 400H35.3448L29.0517 397.759C25.6897 396.466 20.8621 394.224 18.5345 392.672C16.1207 391.121 12.931 388.362 11.2931 386.552C9.65517 384.655 7.41379 381.724 6.2931 379.914C5.25862 378.19 3.36207 373.793 0 363.793V200.603C0 54.9138 0.172414 36.9828 1.37931 32.3276C2.06897 29.4828 3.62069 25.1724 4.82759 22.8448C6.03448 20.431 8.44828 16.8103 10.2586 14.6552C12.069 12.5 15.6034 9.39655 18.1897 7.67241C20.7759 5.94828 25.5172 3.53448 28.8793 2.32759L34.9138 0.0862072ZM30.6034 19.6552C28.7069 20.6034 25.8621 22.6724 24.2241 24.2241C22.5862 25.8621 20.2586 29.2241 19.0517 31.8966C16.9828 36.4655 16.8966 37.2414 16.8103 53.0172V69.3966H383.19C383.103 37.3276 383.017 36.3793 380.948 31.8966C379.741 29.2241 377.414 25.7759 375.776 24.1379C374.138 22.5862 370.69 20.2586 368.103 18.9655L363.362 16.8103C114.138 16.6379 40.0862 16.8103 37.931 17.1552C35.7759 17.5862 32.5 18.6207 30.6034 19.6552ZM16.7241 225.862L16.8103 363.362C20.2586 370.69 22.5862 374.138 24.2241 375.69C25.8621 377.328 29.3103 379.655 31.8966 380.862L36.6379 383.19H363.362C370.69 379.741 374.138 377.414 375.776 375.776C377.414 374.138 379.741 370.69 380.948 368.103L383.19 363.362V86.6379C52.2414 86.2069 17.1552 86.3793 16.8965 87.2414C16.7241 87.8448 16.6379 150.259 16.7241 225.862ZM273.19 35.3448C278.017 35.3448 278.621 35.5172 280.603 37.931C281.81 39.3966 282.759 41.5517 282.759 43.1034C282.759 44.4828 282.328 46.4655 281.897 47.4138C281.379 48.3621 279.828 49.6552 278.448 50.431C276.983 51.1207 274.483 51.7241 272.845 51.7241C271.207 51.7241 268.793 51.2069 267.586 50.6034C266.293 50 264.741 48.4483 264.138 47.1552C263.448 45.8621 262.931 43.7931 263.017 42.5862C263.017 41.3793 264.138 39.2241 265.517 37.8448C267.672 35.6035 268.534 35.3448 273.19 35.3448ZM305.259 35.3448C309.741 35.3448 310.603 35.6034 312.931 37.931C314.397 39.3966 315.517 41.3793 315.517 42.6724C315.517 43.7931 315 45.7759 314.397 47.069C313.879 48.2759 312.328 49.8276 310.948 50.5172C309.655 51.1207 307.241 51.7241 305.603 51.7241C303.966 51.7241 301.379 51.1207 300 50.431C298.534 49.6552 296.983 48.3621 296.552 47.4138C296.034 46.4655 295.603 44.569 295.603 43.1034C295.517 41.5517 296.293 39.6552 297.845 37.931C299.914 35.6034 300.603 35.3448 305.259 35.3448ZM337.5 35.3448C340.086 35.3448 343.017 35.6897 343.966 36.2069C344.914 36.6379 346.293 38.1897 346.983 39.6552C347.672 41.0345 348.103 43.3621 347.845 44.8276C347.586 46.3793 346.293 48.2759 344.569 49.6552C342.155 51.6379 341.207 51.8103 337.069 51.4655C333.362 51.1207 331.897 50.6034 330.345 48.7931C329.052 47.2414 328.448 45.431 328.448 43.0172C328.534 40.5172 329.138 38.9655 330.603 37.4138C332.328 35.6897 333.534 35.3448 337.5 35.3448ZM38.1034 103.448H181.897L186.638 107.586V251.638L181.897 256.466L112.672 256.724C74.6552 256.81 42.2414 256.724 40.6897 256.466C39.2241 256.207 36.9828 254.914 33.5345 251.293L33.4483 108.707L38.1034 103.448ZM109.914 168.103C146.983 131.034 157.759 120.172 157.759 120.086C157.759 119.914 136.121 119.828 109.741 119.828H61.6379L109.914 168.103ZM49.8276 180.345C49.9138 205.862 50.2586 226.724 50.6897 226.724C51.0345 226.724 61.8966 216.207 74.8276 203.276L98.2759 179.741C61.8966 143.276 50.9483 133.017 50.5172 133.276C50.0862 133.707 49.7414 153.276 49.8276 180.345ZM121.983 180.172C158.707 216.897 169.655 227.328 170.086 227.155C170.431 226.897 170.69 205.603 170.69 179.741C170.69 153.879 170.431 132.759 170 132.759C169.655 132.759 158.707 143.448 145.69 156.466L121.983 180.172ZM62.5 239.655H158.19C121.466 202.931 110.603 192.241 110.345 192.241C110.086 192.241 99.2241 202.931 86.2069 215.948L62.5 239.655ZM218.19 103.448H362.069L364.224 106.034C365.431 107.5 366.379 109.741 366.379 111.207C366.379 112.672 365.948 114.569 365.517 115.517C365 116.466 363.448 117.845 362.069 118.534C359.828 119.655 349.914 119.828 218.966 119.828L215.69 116.724C212.759 113.879 212.586 113.362 213.103 110.517C213.448 108.793 214.741 106.466 215.948 105.431L218.19 103.448ZM289.828 137.069C350.086 137.069 359.828 137.241 362.069 138.362C363.448 139.052 365 140.431 365.517 141.379C365.948 142.328 366.379 144.052 366.379 145.259C366.379 146.379 365.948 148.276 365.517 149.31C365 150.431 363.621 151.81 362.328 152.586C360.345 153.707 350.603 153.879 218.103 153.879L215.948 151.724C214.741 150.517 213.534 148.19 213.276 146.552C212.931 144.224 213.19 142.931 214.655 141.034C215.603 139.741 217.328 138.276 218.362 137.845C219.397 137.5 251.552 137.155 289.828 137.069ZM361.207 171.552L363.793 174.138C365.69 176.034 366.379 177.5 366.379 179.741C366.379 181.897 365.69 183.448 361.379 187.931H218.103L215.948 185.776C214.741 184.569 213.534 182.5 213.276 181.207C213.017 179.914 213.276 177.759 213.879 176.379C214.569 175 216.034 173.362 217.241 172.759C218.966 171.81 233.103 171.552 361.207 171.552ZM218.793 212.931H289.138C349.914 212.931 359.828 213.103 362.069 214.224C363.448 214.914 365 216.293 365.517 217.241C366.034 218.362 366.379 244.397 366.379 361.207L361.379 366.379H290.172C244.397 366.379 218.362 366.034 217.241 365.517C216.293 365 214.914 363.448 214.224 362.069C213.103 359.828 212.931 350 213.103 218.793L218.793 212.931ZM266.034 254.31L289.655 278.017C326.379 241.207 337.069 230.259 337.069 229.914C337.069 229.569 315.948 229.31 290.086 229.31C264.31 229.31 243.017 229.569 242.759 229.914C242.5 230.259 253.017 241.207 266.034 254.31ZM229.138 290.172C229.224 315.948 229.569 337.069 229.914 337.069C230.345 337.069 241.293 326.379 254.31 313.362L278.017 289.655C241.293 252.845 230.259 242.414 229.828 242.759C229.31 243.103 229.052 262.759 229.138 290.172ZM301.724 290.086C338.103 326.552 348.966 336.81 349.397 336.466C349.741 336.034 350 314.914 350 289.397C350 263.966 349.741 243.103 349.31 243.103C348.966 243.103 338.103 253.621 325.172 266.552L301.724 290.086ZM266.379 325.259C253.362 338.19 242.845 349.052 242.931 349.397C243.017 349.741 264.052 350 289.655 350C315.259 350 336.379 349.741 336.638 349.397C336.81 349.052 326.466 338.19 313.534 325.259L290.086 301.724L266.379 325.259ZM38.1034 281.983H181.897L186.638 286.121L186.897 322.586C187.069 350.776 186.897 359.655 186.034 361.638C185.431 363.017 184.138 364.655 183.19 365.259C181.81 366.207 168.793 366.466 38.7931 366.466L33.6207 361.293L33.4483 287.241L38.1034 281.983ZM50 315.603H170.69V298.362H50V315.603ZM50 350.086L170.259 349.655L170.69 332.845H50V350.086Z" fill="black"/>
<path fill-rule="evenodd" clip-rule="evenodd" d="M16.7241 225.862L16.8103 363.362C20.2586 370.69 22.5862 374.138 24.2241 375.69C25.8621 377.328 29.3103 379.655 31.8966 380.862L36.6379 383.19H363.362C370.69 379.741 374.138 377.414 375.776 375.776C377.414 374.138 379.741 370.69 380.948 368.103L383.19 363.362V86.6379C52.2414 86.2069 17.1552 86.3793 16.8965 87.2414C16.7241 87.8448 16.6379 150.259 16.7241 225.862ZM181.897 103.448H38.1034L33.4483 108.707L33.5345 251.293C36.9828 254.914 39.2241 256.207 40.6897 256.466C42.2414 256.724 74.6552 256.81 112.672 256.724L181.897 256.466L186.638 251.638V107.586L181.897 103.448ZM362.069 103.448H218.19L215.948 105.431C214.741 106.466 213.448 108.793 213.103 110.517C212.586 113.362 212.759 113.879 215.69 116.724L218.966 119.828C349.914 119.828 359.828 119.655 362.069 118.534C363.448 117.845 365 116.466 365.517 115.517C365.948 114.569 366.379 112.672 366.379 111.207C366.379 109.741 365.431 107.5 364.224 106.034L362.069 103.448ZM362.069 138.362C359.828 137.241 350.086 137.069 289.828 137.069C251.552 137.155 219.397 137.5 218.362 137.845C217.328 138.276 215.603 139.741 214.655 141.034C213.19 142.931 212.931 144.224 213.276 146.552C213.534 148.19 214.741 150.517 215.948 151.724L218.103 153.879C350.603 153.879 360.345 153.707 362.328 152.586C363.621 151.81 365 150.431 365.517 149.31C365.948 148.276 366.379 146.379 366.379 145.259C366.379 144.052 365.948 142.328 365.517 141.379C365 140.431 363.448 139.052 362.069 138.362ZM363.793 174.138L361.207 171.552C233.103 171.552 218.966 171.81 217.241 172.759C216.034 173.362 214.569 175 213.879 176.379C213.276 177.759 213.017 179.914 213.276 181.207C213.534 182.5 214.741 184.569 215.948 185.776L218.103 187.931H361.379C365.69 183.448 366.379 181.897 366.379 179.741C366.379 177.5 365.69 176.034 363.793 174.138ZM289.138 212.931H218.793L213.103 218.793C212.931 350 213.103 359.828 214.224 362.069C214.914 363.448 216.293 365 217.241 365.517C218.362 366.034 244.397 366.379 290.172 366.379H361.379L366.379 361.207C366.379 244.397 366.034 218.362 365.517 217.241C365 216.293 363.448 214.914 362.069 214.224C359.828 213.103 349.914 212.931 289.138 212.931ZM181.897 281.983H38.1034L33.4483 287.241L33.6207 361.293L38.7931 366.466C168.793 366.466 181.81 366.207 183.19 365.259C184.138 364.655 185.431 363.017 186.034 361.638C186.897 359.655 187.069 350.776 186.897 322.586L186.638 286.121L181.897 281.983Z" fill="#E1DBFD"/>
<path fill-rule="evenodd" clip-rule="evenodd" d="M30.6034 19.6552C28.7069 20.6034 25.8621 22.6724 24.2241 24.2241C22.5862 25.8621 20.2586 29.2241 19.0517 31.8966C16.9828 36.4655 16.8966 37.2414 16.8103 53.0172V69.3966H383.19C383.103 37.3276 383.017 36.3793 380.948 31.8966C379.741 29.2241 377.414 25.7759 375.776 24.1379C374.138 22.5862 370.69 20.2586 368.103 18.9655L363.362 16.8103C114.138 16.6379 40.0862 16.8103 37.931 17.1552C35.7759 17.5862 32.5 18.6207 30.6034 19.6552ZM280.603 37.931C278.621 35.5172 278.017 35.3448 273.19 35.3448C268.534 35.3448 267.672 35.6035 265.517 37.8448C264.138 39.2241 263.017 41.3793 263.017 42.5862C262.931 43.7931 263.448 45.8621 264.138 47.1552C264.741 48.4483 266.293 50 267.586 50.6034C268.793 51.2069 271.207 51.7241 272.845 51.7241C274.483 51.7241 276.983 51.1207 278.448 50.431C279.828 49.6552 281.379 48.3621 281.897 47.4138C282.328 46.4655 282.759 44.4828 282.759 43.1034C282.759 41.5517 281.81 39.3966 280.603 37.931ZM312.931 37.931C310.603 35.6034 309.741 35.3448 305.259 35.3448C300.603 35.3448 299.914 35.6034 297.845 37.931C296.293 39.6552 295.517 41.5517 295.603 43.1034C295.603 44.569 296.034 46.4655 296.552 47.4138C296.983 48.3621 298.534 49.6552 300 50.431C301.379 51.1207 303.966 51.7241 305.603 51.7241C307.241 51.7241 309.655 51.1207 310.948 50.5172C312.328 49.8276 313.879 48.2759 314.397 47.069C315 45.7759 315.517 43.7931 315.517 42.6724C315.517 41.3793 314.397 39.3966 312.931 37.931ZM343.966 36.2069C343.017 35.6897 340.086 35.3448 337.5 35.3448C333.534 35.3448 332.328 35.6897 330.603 37.4138C329.138 38.9655 328.534 40.5172 328.448 43.0172C328.448 45.431 329.052 47.2414 330.345 48.7931C331.897 50.6034 333.362 51.1207 337.069 51.4655C341.207 51.8103 342.155 51.6379 344.569 49.6552C346.293 48.2759 347.586 46.3793 347.845 44.8276C348.103 43.3621 347.672 41.0345 346.983 39.6552C346.293 38.1897 344.914 36.6379 343.966 36.2069Z" fill="#E1DBFD"/>
<path d="M109.914 168.103C146.983 131.034 157.759 120.172 157.759 120.086C157.759 119.914 136.121 119.828 109.741 119.828H61.6379L109.914 168.103Z" fill="white"/>
<path d="M121.983 180.172C158.707 216.897 169.655 227.328 170.086 227.155C170.431 226.897 170.69 205.603 170.69 179.741C170.69 153.879 170.431 132.759 170 132.759C169.655 132.759 158.707 143.448 145.69 156.466L121.983 180.172Z" fill="white"/>
<path d="M62.5 239.655H158.19C121.466 202.931 110.603 192.241 110.345 192.241C110.086 192.241 99.2241 202.931 86.2069 215.948L62.5 239.655Z" fill="white"/>
<path d="M49.8276 180.345C49.9138 205.862 50.2586 226.724 50.6897 226.724C51.0345 226.724 61.8966 216.207 74.8276 203.276L98.2759 179.741C61.8966 143.276 50.9483 133.017 50.5172 133.276C50.0862 133.707 49.7414 153.276 49.8276 180.345Z" fill="white"/>
<path d="M266.034 254.31L289.655 278.017C326.379 241.207 337.069 230.259 337.069 229.914C337.069 229.569 315.948 229.31 290.086 229.31C264.31 229.31 243.017 229.569 242.759 229.914C242.5 230.259 253.017 241.207 266.034 254.31Z" fill="white"/>
<path d="M301.724 290.086C338.103 326.552 348.966 336.81 349.397 336.466C349.741 336.034 350 314.914 350 289.397C350 263.966 349.741 243.103 349.31 243.103C348.966 243.103 338.103 253.621 325.172 266.552L301.724 290.086Z" fill="white"/>
<path d="M266.379 325.259C253.362 338.19 242.845 349.052 242.931 349.397C243.017 349.741 264.052 350 289.655 350C315.259 350 336.379 349.741 336.638 349.397C336.81 349.052 326.466 338.19 313.534 325.259L290.086 301.724L266.379 325.259Z" fill="white"/>
<path d="M229.138 290.172C229.224 315.948 229.569 337.069 229.914 337.069C230.345 337.069 241.293 326.379 254.31 313.362L278.017 289.655C241.293 252.845 230.259 242.414 229.828 242.759C229.31 243.103 229.052 262.759 229.138 290.172Z" fill="white"/>
<path d="M50 315.603H170.69V298.362H50V315.603Z" fill="white"/>
<path d="M50 350.086L170.259 349.655L170.69 332.845H50V350.086Z" fill="white"/>
</g>
<defs>
<clipPath id="clip0_560_1132">
<rect width="400" height="400" fill="white"/>
</clipPath>
</defs>
</svg>
