<svg width="400" height="400" viewBox="0 0 400 400" fill="none" xmlns="http://www.w3.org/2000/svg">
<path d="M188.695 143.362C182.503 146.582 172.818 151.592 167.261 154.526L157.1 159.822L157.18 206.77L200.047 228.955L243.708 206.412V159.893L199.967 137.493L188.695 143.362Z" fill="#90C3CD"/>
<path d="M219.893 127.331C219.893 127.545 226.164 131.124 233.944 135.274C241.723 139.497 261.49 149.946 277.843 158.462C294.196 167.05 310.469 175.638 313.883 177.714C317.376 179.717 321.028 182.222 322.06 183.296L323.885 185.3C323.885 255.721 324.123 276.189 324.52 276.189C324.838 276.189 327.378 275.116 330.236 273.828C333.094 272.54 337.381 270.321 339.762 268.818C342.144 267.387 346.113 264.667 348.415 262.806C350.796 260.874 354.924 256.938 357.465 254.004C360.084 251.07 363.815 245.702 365.8 242.195C367.705 238.617 370.166 232.82 371.198 229.313C372.151 225.735 373.262 220.439 373.5 217.505C373.818 214.427 373.659 208.774 373.103 204.265C372.627 199.899 371.277 194.031 370.245 191.168C369.213 188.305 367.229 184.011 365.879 181.507C364.45 179.073 361.91 175.137 360.164 172.775C358.338 170.414 354.21 166.048 350.955 163.042C346.113 158.677 342.064 156.1 330.236 149.731C322.139 145.365 302.372 134.988 286.178 126.615C270.063 118.17 256.092 110.942 255.218 110.441C253.71 109.582 251.884 110.298 236.722 118.242C227.514 123.037 219.893 127.116 219.893 127.331Z" fill="#90C3CD"/>
<path d="M252.837 56.1216C249.344 57.1235 244.184 59.1274 241.326 60.4872C238.469 61.9185 218.464 72.2957 196.713 83.5317L157.338 104.071C156.624 110.727 156.386 117.311 156.386 123.037C156.386 128.762 156.624 134.845 156.862 136.634L157.418 139.855C206.159 114.735 228.704 103.069 238.945 97.7019L257.6 87.8973C266.809 88.7561 269.984 90.3305 308.247 110.226C330.792 121.963 349.844 131.625 350.479 131.625C351.511 131.625 351.67 129.835 351.431 118.886C351.193 107.292 350.955 105.789 348.971 100.851C347.859 97.9166 345.478 92.9069 343.731 89.758C341.985 86.6091 338.333 81.5278 335.634 78.3789C332.856 75.3015 327.775 70.7212 324.282 68.1448C320.789 65.64 314.915 62.2048 311.184 60.4156C307.453 58.698 301.182 56.4794 297.292 55.4059C291.576 53.903 288.004 53.4736 279.431 53.2589C273.556 53.1158 266.57 53.2589 263.951 53.6168C261.331 53.903 256.33 55.0481 252.837 56.1216Z" fill="#90C3CD"/>
<path d="M151.623 28.64C148.368 29.7135 143.526 31.8605 140.906 33.2202C138.286 34.6516 134.238 37.1564 131.856 38.8024C129.475 40.4485 125.188 44.0984 122.33 46.9611C119.472 49.7522 115.424 54.5471 113.36 57.6961C111.296 60.7735 108.756 65.3537 107.724 67.9301C106.612 70.5065 105.104 75.0152 104.39 77.9495C103.199 82.5298 102.961 88.8992 102.643 121.605C102.405 142.646 102.484 164.116 102.722 169.197L103.278 178.501C128.125 191.526 135.825 195.319 136.302 195.319C137.096 195.319 137.413 184.298 137.493 142.861C137.731 91.905 137.81 90.4021 139.318 88.0404C140.43 86.3944 143.526 84.1042 149.241 80.9553C153.846 78.3789 172.898 68.288 191.712 58.4117C210.446 48.6071 226.005 40.4485 226.243 40.2338C226.482 40.0191 225.211 38.7309 223.465 37.3711C221.719 36.0113 216.4 33.1487 211.557 31.0017C206.715 28.9262 200.523 26.6361 197.665 26.0636C194.569 25.3479 187.742 24.7754 180.598 24.5607C171.707 24.346 167.261 24.5607 163.133 25.4195C160.117 26.0636 154.878 27.4949 151.623 28.64Z" fill="#90C3CD"/>
<path d="M67.1586 93.9089C62.8719 95.9843 56.8387 99.5627 53.7427 101.924C50.6468 104.286 45.8044 108.795 43.1053 111.944C40.3269 115.093 36.4371 120.603 34.3731 124.11C32.3885 127.617 29.8483 133.628 28.7369 137.35C27.0698 143.004 26.7523 145.723 26.7523 153.81C26.7523 159.822 27.2286 165.404 27.9431 168.481C28.6575 171.201 30.3246 176.068 31.7535 179.216C33.103 182.365 35.9608 187.518 37.9454 190.667C40.3269 194.317 44.2167 198.683 48.821 202.834C54.7747 208.201 58.0295 210.348 68.27 215.859C75.0176 219.437 89.5448 227.095 100.42 232.748C111.375 238.474 120.425 243.054 120.663 242.911C120.901 242.839 123.124 237.543 125.664 231.174L130.189 219.652L144.081 219.294C138.525 216.36 127.252 210.42 115.503 204.265C103.754 198.039 90.5768 191.025 86.3694 188.592C82.0827 186.158 78.1135 183.367 77.3991 182.222C76.3671 180.576 76.2083 174.708 76.1289 138.567C76.1289 115.665 75.8114 95.4118 75.4939 93.551L74.9382 90.1874L67.1586 93.9089Z" fill="#90C3CD"/>
<path d="M47.6302 242.911C47.6302 245.63 48.0271 250.497 48.424 253.646C48.821 256.795 49.9323 261.59 50.8849 264.381C51.7581 267.1 54.1397 272.253 56.1242 275.832C58.1088 279.338 61.1254 284.062 62.9512 286.209C64.6977 288.356 68.3493 292.006 71.0484 294.367C73.668 296.658 77.796 299.735 80.1775 301.238C82.559 302.669 86.7663 304.888 89.5448 306.104C93.0377 307.75 94.5459 308.108 94.8635 307.464C95.0222 306.963 98.8327 297.731 103.199 286.924C107.565 276.118 111.137 266.957 111.137 266.671C111.137 266.385 106.93 263.952 101.849 261.232C96.6893 258.512 83.0353 251.427 71.4453 245.487C59.8553 239.476 50.0117 234.609 49.5354 234.681C48.9797 234.681 48.3446 235.396 48.1065 236.255C47.8683 237.186 47.6302 240.12 47.6302 242.911Z" fill="#90C3CD"/>
<path d="M179.963 260.659C180.042 261.518 182.662 268.246 185.917 275.617L191.712 289C226.799 270.75 237.04 265.24 237.198 264.953C237.278 264.596 234.658 264.524 231.403 264.739L225.45 265.097C225.45 239.476 225.211 236.112 224.497 236.112C223.941 236.112 213.621 241.265 201.635 247.563C182.9 257.439 179.804 259.3 179.963 260.659Z" fill="#90C3CD"/>
<path d="M169.643 238.044C170.754 240.692 171.866 242.982 172.024 243.054C172.183 243.197 173.93 242.338 175.994 241.265C177.978 240.191 179.804 239.046 179.963 238.76C180.122 238.474 177.502 236.828 174.247 235.039C170.992 233.249 168.135 231.818 167.896 231.818C167.658 231.818 167.5 232.104 167.5 232.534C167.5 232.892 168.452 235.396 169.643 238.044Z" fill="#90C3CD"/>
<path d="M262.76 223.946L297.292 223.588V187.948C272.048 174.851 264.348 171.058 263.792 170.986C262.998 170.986 262.76 176.712 262.76 197.466V223.946Z" fill="#90C3CD"/>
<path fill-rule="evenodd" clip-rule="evenodd" d="M178.216 0.0132531C190.124 -0.0583137 191.553 0.0848198 201.635 2.37496C207.509 3.73473 215.606 6.02486 219.496 7.59933C223.386 9.10223 229.657 12.1796 233.388 14.3266C237.119 16.5452 243.549 21.0539 255.377 30.3576L262.045 29.4988C265.697 28.9978 271.016 28.64 273.874 28.5684C276.731 28.5684 282.765 28.9262 287.369 29.2841C291.973 29.7135 297.848 30.5723 300.467 31.1448C303.087 31.7889 307.374 32.934 309.993 33.7212C312.613 34.58 317.614 36.5123 321.107 38.0868C324.6 39.6612 329.76 42.2377 332.618 43.9553C335.475 45.6013 340.397 48.9649 343.652 51.5413C346.907 54.0462 352.305 59.0559 355.559 62.6342C358.894 66.2125 363.577 72.3673 365.959 76.2319C368.34 80.0965 371.436 86.0365 372.865 89.4002C374.215 92.7638 376.199 98.847 377.152 102.998C378.422 108.58 378.898 113.089 378.978 120.532C379.057 129.191 378.739 131.911 374.294 150.089L377.152 153.238C378.66 154.884 381.439 158.247 383.185 160.609C384.931 162.971 387.869 167.551 389.694 170.843C391.441 174.064 393.981 179.503 395.251 183.01C396.521 186.445 398.188 192.17 398.903 195.677C400.014 200.758 400.173 204.766 399.856 214.642C399.538 225.162 399.141 228.311 397.315 234.323C396.204 238.259 394.061 244.056 392.632 247.205C391.123 250.354 388.266 255.507 386.202 258.656C384.138 261.805 380.803 266.313 378.819 268.675C376.755 271.037 372.309 275.474 368.737 278.551C365.244 281.629 359.687 285.851 356.433 287.855C353.178 289.859 347.065 293.079 342.937 294.94C338.809 296.801 331.744 299.234 319.202 302.311L317.852 305.532C317.138 307.321 314.597 312.116 312.216 316.267C309.914 320.418 305.786 326.358 298.483 335.232V359.923L304.674 359.565C308.009 359.279 311.581 359.064 314.359 358.849V400H150.829V381.393C150.829 365.505 150.988 362.714 152.02 362.427C152.655 362.213 155.195 362.07 157.577 362.07C159.958 362.07 161.943 361.855 161.943 361.569C161.943 361.211 161.308 359.493 159.164 354.197L142.097 354.627C132.729 354.913 124.791 355.271 124.553 355.557C124.235 355.772 123.759 356.774 122.807 359.565L133.365 358.491V400H55.5686V362.07L71.8422 362.141L73.7474 358.348C74.7794 356.273 77.7166 349.474 80.2569 343.319C82.8765 337.093 84.9405 331.797 84.9405 331.511C84.9405 331.153 80.892 329.077 75.9702 326.859C71.1278 324.569 64.2214 320.704 60.7285 318.199C57.2356 315.694 51.7582 311.042 48.5828 307.965C45.3281 304.888 40.8032 299.735 38.5011 296.586C36.1196 293.437 32.6267 287.783 30.6421 284.062C28.6575 280.34 26.1172 274.329 25.0059 270.822C23.8945 267.315 22.3862 260.659 21.6717 256.151C20.8779 250.783 20.6398 245.559 20.9573 241.122C21.1954 237.4 22.3862 230.244 25.7997 216.217L22.9419 213.139C21.4336 211.422 18.6552 208.058 16.9087 205.696C15.1623 203.334 12.2251 198.826 10.4786 195.677C8.7322 192.528 6.35069 187.518 5.23932 184.584C4.04857 181.65 2.38151 176.068 1.58767 172.275C0.476302 167.265 0 162.255 0 154.741C0 147.942 0.476302 141.93 1.27014 138.066C1.98459 134.702 3.49288 129.263 4.76302 125.899C5.95378 122.536 8.49405 117.097 10.3199 113.733C12.2251 110.369 15.4798 105.216 17.7026 102.282C19.8459 99.348 25.6409 93.3363 30.4833 89.0423C35.3257 84.6768 41.7558 79.5955 44.8518 77.8064C47.8684 75.9456 53.2664 73.2261 56.7593 71.6516C60.2522 70.0771 66.6823 67.7154 71.0484 66.4988C75.4145 65.2106 79.4631 63.7793 80.0187 63.3499C80.6538 62.9205 83.3529 58.4117 86.0519 53.2589C88.8303 48.1061 92.7995 41.8798 94.8635 39.3034C97.0068 36.727 100.5 32.7908 102.722 30.4291C104.945 28.139 109.788 23.9881 113.519 21.197C117.25 18.4775 122.807 14.8991 125.823 13.3247C128.84 11.6786 134.397 9.1738 138.128 7.6709C141.859 6.23956 149.479 3.87786 155.195 2.51809C164.8 0.227953 166.388 0.0132531 178.216 0.0132531ZM140.906 33.2202C143.526 31.8605 148.368 29.7135 151.623 28.64C154.878 27.4949 160.117 26.0636 163.133 25.4195C167.261 24.5607 171.707 24.346 180.598 24.5607C187.742 24.7754 194.569 25.3479 197.665 26.0636C200.523 26.6361 206.715 28.9262 211.557 31.0017C216.4 33.1487 221.719 36.0113 223.465 37.3711C225.211 38.7309 226.482 40.0191 226.243 40.2338C226.005 40.4485 210.446 48.6071 191.712 58.4117C172.898 68.288 153.846 78.3789 149.241 80.9553C143.526 84.1042 140.43 86.3944 139.318 88.0404C137.81 90.4021 137.731 91.905 137.493 142.861C137.413 184.298 137.096 195.319 136.302 195.319C135.825 195.319 128.125 191.526 103.278 178.501L102.722 169.197C102.484 164.116 102.405 142.646 102.643 121.605C102.961 88.8992 103.199 82.5298 104.39 77.9495C105.104 75.0152 106.612 70.5065 107.724 67.9301C108.756 65.3537 111.296 60.7735 113.36 57.6961C115.424 54.5471 119.472 49.7522 122.33 46.9611C125.188 44.0984 129.475 40.4485 131.856 38.8024C134.238 37.1564 138.286 34.6516 140.906 33.2202ZM241.326 60.4872C244.184 59.1274 249.344 57.1235 252.837 56.1216C256.33 55.0481 261.331 53.903 263.951 53.6168C266.57 53.2589 273.556 53.1158 279.431 53.2589C288.004 53.4736 291.576 53.903 297.292 55.4059C301.182 56.4794 307.453 58.698 311.184 60.4156C314.915 62.2048 320.789 65.64 324.282 68.1448C327.775 70.7212 332.856 75.3015 335.634 78.3789C338.333 81.5278 341.985 86.6091 343.731 89.758C345.478 92.9069 347.859 97.9166 348.971 100.851C350.955 105.789 351.193 107.292 351.431 118.886C351.67 129.835 351.511 131.625 350.479 131.625C349.844 131.625 330.792 121.963 308.247 110.226C269.984 90.3305 266.809 88.7561 257.6 87.8973L238.945 97.7019C228.704 103.069 206.159 114.735 157.418 139.855L156.862 136.634C156.624 134.845 156.386 128.762 156.386 123.037C156.386 117.311 156.624 110.727 157.338 104.071L196.713 83.5317C218.464 72.2957 238.469 61.9185 241.326 60.4872ZM53.7427 101.924C56.8387 99.5627 62.8719 95.9843 67.1586 93.9089L74.9382 90.1874L75.4939 93.551C75.8114 95.4118 76.1289 115.665 76.1289 138.567C76.2083 174.708 76.3671 180.576 77.3991 182.222C78.1135 183.367 82.0827 186.158 86.3694 188.592C90.5768 191.025 103.754 198.039 115.503 204.265C127.252 210.42 138.525 216.36 144.081 219.294L130.189 219.652L125.664 231.174C123.124 237.543 120.901 242.839 120.663 242.911C120.425 243.054 111.375 238.474 100.42 232.748C89.5448 227.095 75.0176 219.437 68.27 215.859C58.0295 210.348 54.7747 208.201 48.821 202.834C44.2167 198.683 40.3269 194.317 37.9454 190.667C35.9608 187.518 33.103 182.365 31.7535 179.216C30.3246 176.068 28.6575 171.201 27.9431 168.481C27.2286 165.404 26.7523 159.822 26.7523 153.81C26.7523 145.723 27.0698 143.004 28.7369 137.35C29.8483 133.628 32.3885 127.617 34.3731 124.11C36.4371 120.603 40.3269 115.093 43.1053 111.944C45.8044 108.795 50.6468 104.286 53.7427 101.924ZM233.944 135.274C226.164 131.124 219.893 127.545 219.893 127.331C219.893 127.116 227.514 123.037 236.722 118.242C251.884 110.298 253.71 109.582 255.218 110.441C256.092 110.942 270.063 118.17 286.178 126.615C302.372 134.988 322.139 145.365 330.236 149.731C342.064 156.1 346.113 158.677 350.955 163.042C354.21 166.048 358.338 170.414 360.164 172.775C361.91 175.137 364.45 179.073 365.879 181.507C367.229 184.011 369.213 188.305 370.245 191.168C371.277 194.031 372.627 199.899 373.103 204.265C373.659 208.774 373.818 214.427 373.5 217.505C373.262 220.439 372.151 225.735 371.198 229.313C370.166 232.82 367.705 238.617 365.8 242.195C363.815 245.702 360.084 251.07 357.465 254.004C354.924 256.938 350.796 260.874 348.415 262.806C346.113 264.667 342.144 267.387 339.762 268.818C337.381 270.321 333.094 272.54 330.236 273.828C327.378 275.116 324.838 276.189 324.52 276.189C324.123 276.189 323.885 255.721 323.885 185.3L322.06 183.296C321.028 182.222 317.376 179.717 313.883 177.714C310.469 175.638 294.196 167.05 277.843 158.462C261.49 149.946 241.723 139.497 233.944 135.274ZM167.261 154.526C172.818 151.592 182.503 146.582 188.695 143.362L199.967 137.493L243.708 159.893V206.412L200.047 228.955L157.18 206.77L157.1 159.822L167.261 154.526ZM297.292 223.588L262.76 223.946V197.466C262.76 176.712 262.998 170.986 263.792 170.986C264.348 171.058 272.048 174.851 297.292 187.948V223.588ZM172.024 243.054C171.866 242.982 170.754 240.692 169.643 238.044C168.452 235.396 167.5 232.892 167.5 232.534C167.5 232.104 167.658 231.818 167.896 231.818C168.135 231.818 170.992 233.249 174.247 235.039C177.502 236.828 180.122 238.474 179.963 238.76C179.804 239.046 177.978 240.191 175.994 241.265C173.93 242.338 172.183 243.197 172.024 243.054ZM48.424 253.646C48.0271 250.497 47.6302 245.63 47.6302 242.911C47.6302 240.12 47.8683 237.186 48.1065 236.255C48.3446 235.396 48.9797 234.681 49.5354 234.681C50.0117 234.609 59.8553 239.476 71.4453 245.487C83.0353 251.427 96.6893 258.512 101.849 261.232C106.93 263.952 111.137 266.385 111.137 266.671C111.137 266.957 107.565 276.118 103.199 286.924C98.8327 297.731 95.0222 306.963 94.8635 307.464C94.5459 308.108 93.0377 307.75 89.5448 306.104C86.7663 304.888 82.559 302.669 80.1775 301.238C77.796 299.735 73.668 296.658 71.0484 294.367C68.3493 292.006 64.6977 288.356 62.9512 286.209C61.1254 284.062 58.1088 279.338 56.1242 275.832C54.1397 272.253 51.7581 267.1 50.8849 264.381C49.9323 261.59 48.821 256.795 48.424 253.646ZM185.917 275.617C182.662 268.246 180.042 261.518 179.963 260.659C179.804 259.3 182.9 257.439 201.635 247.563C213.621 241.265 223.941 236.112 224.497 236.112C225.211 236.112 225.45 239.476 225.45 265.097L231.403 264.739C234.658 264.524 237.278 264.596 237.198 264.953C237.04 265.24 226.799 270.75 191.712 289L185.917 275.617ZM208.462 327.646C205.048 319.631 202.19 312.617 202.111 312.188C202.111 311.687 210.605 306.82 221.084 301.309C231.562 295.799 240.453 291.29 240.771 291.219C241.088 291.219 241.326 302.168 241.326 339.884L238.389 340.671C236.722 341.029 230.768 341.602 214.733 342.246L208.462 327.646Z" fill="black"/>
<path d="M117.885 292.292C130.745 260.445 141.382 234.251 141.382 234.108C141.382 233.965 143.526 233.965 150.988 234.323L177.502 295.512C192.108 329.149 204.969 359.636 206.001 363.143C207.033 366.721 208.144 370.729 208.779 374.594L223.862 373.878V385.686H166.706V376.741L170.278 376.24C172.263 375.882 174.644 375.238 175.676 374.665C176.629 374.093 177.899 372.733 178.454 371.588C179.169 370.371 179.407 367.938 179.248 365.29C179.01 362.427 177.502 357.561 170.278 339.812L144.875 340.242C130.904 340.456 117.964 340.814 112.725 341.315L108.676 352.623C106.374 358.777 103.516 366.22 102.326 369.083C101.055 371.874 100.023 374.307 100.023 374.45C100.023 374.522 103.913 374.522 117.488 374.236V385.686H71.4453V376.383L74.4619 376.025C76.0496 375.81 78.5898 375.023 80.0187 374.236C81.3683 373.449 83.6704 371.445 84.9405 369.799C86.2901 368.081 88.9891 363 90.8943 358.491C92.7995 353.982 104.945 324.211 117.885 292.292Z" fill="white"/>
<path d="M241.326 249.71V243.984V238.259H298.483V242.911C298.483 247.491 298.483 247.563 296.26 247.563C295.069 247.563 292.529 248.278 290.624 249.137C288.639 250.067 286.416 251.57 285.622 252.572C284.829 253.574 283.876 256.151 283.4 258.298C283.003 260.588 282.526 285.708 282.209 374.808L298.483 373.878V385.686H241.326V376.741L245.851 375.882C249.027 375.238 251.091 374.379 252.519 373.019C253.71 371.946 255.139 370.228 255.695 369.226C256.409 368.009 256.806 364.002 256.965 357.06C257.124 351.334 257.282 324.64 257.6 248.851L241.326 249.71Z" fill="white"/>
<path d="M126.3 306.248C131.142 293.867 136.382 280.269 137.969 276.047V275.975C139.478 271.753 141.145 268.317 141.621 268.317C142.018 268.317 143.447 271.609 144.717 275.617C145.987 279.697 151.147 292.936 156.148 305.174C161.229 317.341 165.436 327.933 165.595 328.577C165.912 329.793 164.325 329.865 141.7 329.865C128.364 329.865 117.488 329.65 117.488 329.292C117.488 329.006 121.457 318.629 126.3 306.248Z" fill="black"/>
</svg>
