<svg width="400" height="400" viewBox="0 0 400 400" fill="none" xmlns="http://www.w3.org/2000/svg">
<path d="M199.019 3.90843C200.505 2.81407 202.929 1.4852 204.493 0.938024C205.979 0.390843 208.794 0 210.749 0C212.704 0 215.519 0.390843 217.005 0.938024C218.569 1.4852 220.993 2.81407 222.479 3.90843C223.965 5.00279 226.155 7.7387 227.328 10.0056C228.97 12.8978 229.517 15.1647 229.595 18.526C229.674 21.4182 229.126 24.2323 228.188 26.4992C227.328 28.4534 225.607 31.1111 224.356 32.3618C223.027 33.6907 220.602 35.4104 218.96 36.1921C217.083 37.1301 214.112 37.7555 211.531 37.7555C209.185 37.8336 205.979 37.521 201.756 36.5829L184.943 53.3892C175.716 62.6131 168.287 70.43 168.521 70.6645C168.756 70.899 172.04 69.8828 175.95 68.3976C179.782 66.9124 187.055 64.6455 191.981 63.3166C196.908 61.9877 205.197 60.1899 210.358 59.2518C216.927 58.0793 224.434 57.454 235.382 57.2194C245.235 56.9849 254.228 57.1413 259.624 57.7666C264.316 58.3138 270.885 59.2518 274.091 59.799C277.297 60.4244 283.319 61.8314 287.385 62.8476C291.452 63.8638 298.49 66.0525 303.025 67.694C307.561 69.2574 316.319 73.1659 322.575 76.2144C328.831 79.3412 337.824 84.4221 351.353 93.3334L356.358 88.4087C359.095 85.6728 362.379 82.9369 363.63 82.2334C365.038 81.5299 366.758 81.2954 367.931 81.6081C369.026 81.8426 376.299 88.4869 384.197 96.3038C392.017 104.121 398.82 111.39 399.29 112.485C399.759 113.579 399.915 115.299 399.681 116.393C399.446 117.566 393.19 124.444 384.197 133.356C370.356 147.113 368.87 148.442 366.367 148.442C363.865 148.442 362.379 147.192 348.147 132.965C334.462 119.285 332.741 117.253 332.741 115.064C332.741 112.954 333.68 111.547 342.125 102.714L335.322 98.0235C331.49 95.5221 324.53 91.3792 319.838 88.9559C315.068 86.4545 307.717 83.0933 303.416 81.3736C299.115 79.6539 291.686 77.1525 286.994 75.8236C282.224 74.4947 274.169 72.6968 269.008 71.7588C263.378 70.8208 254.228 69.9609 246.33 69.7264C238.276 69.4138 229.517 69.6483 224.043 70.1954C219.117 70.7426 211.531 71.837 207.23 72.6968C202.929 73.5567 196.048 75.2764 191.981 76.4489C187.915 77.6996 181.19 79.9665 177.123 81.5299C173.057 83.1714 165.784 86.4545 161.092 88.9559C156.322 91.4573 150.457 94.8186 147.955 96.5383C145.452 98.1798 143.497 99.7432 143.497 99.9777C143.497 100.212 144.201 102.323 145.061 104.668C146 107.247 146.625 111.078 146.625 114.439C146.625 117.487 146.078 121.865 145.374 124.21C144.67 126.555 143.184 130.073 141.933 132.027C140.76 133.981 138.18 136.951 136.303 138.593C134.504 140.313 130.672 142.814 127.857 144.065C123.165 146.332 122.149 146.488 114.563 146.488C107.838 146.41 105.727 146.097 99.3141 143.127L95.2477 149.537C92.9799 152.976 89.2263 159.699 86.8803 164.467C84.5343 169.235 81.3281 176.583 79.7641 180.882C78.1219 185.182 75.6977 193.311 74.2901 198.861C72.8825 204.411 71.0839 213.791 70.3801 219.576C69.2853 227.783 69.1289 233.568 69.4417 245.371C69.6763 255.69 70.3801 263.507 71.4749 269.604C72.3351 274.528 74.1337 282.345 75.4631 287.035C76.7143 291.647 79.2167 298.995 81.0153 303.451C82.7357 307.828 86.1765 315.254 88.6007 320.022C91.1031 324.713 95.2477 331.67 102.442 342.301L107.291 337.61C111.279 333.858 112.686 332.92 114.72 332.92C116.987 332.92 119.021 334.64 132.784 348.398C147.016 362.624 148.189 364.031 148.189 366.533C148.189 369.034 146.86 370.598 133.097 384.355C124.182 393.345 117.3 399.598 116.127 399.833C115.032 400.067 113.312 399.911 112.217 399.442C111.122 398.973 103.85 392.172 96.0297 384.355C88.2097 376.46 81.5627 369.191 81.3281 368.096C81.0153 366.924 81.2499 365.204 81.9537 363.797C82.6575 362.546 85.3945 359.263 93.0581 351.524L87.5841 343.239C84.5343 338.627 79.9205 330.653 77.2617 325.494C74.6029 320.335 70.8493 312.049 68.9725 307.125C67.0175 302.2 64.3587 294.07 63.0293 289.146C61.6999 284.221 59.9013 275.935 58.9629 270.776C57.8681 264.523 57.1643 256.393 56.9297 246.544C56.6169 237.476 56.8515 228.174 57.3989 222.702C57.9463 217.778 59.1975 209.336 60.2923 203.942C61.3089 198.548 64.1241 188.543 66.3919 181.664C68.7379 174.785 70.4583 169.001 70.3019 168.766C70.0673 168.532 62.3255 175.958 53.0979 185.182C38.2398 200.034 36.363 202.222 36.754 203.942C36.9886 205.036 37.3796 207.46 37.6924 209.414C37.927 211.368 37.6924 214.26 37.145 216.058C36.5976 217.778 35.3464 220.514 34.3298 222.155C33.3132 223.719 30.8108 225.986 28.6994 227.158C26.6662 228.331 23.6164 229.581 21.896 229.894C20.0192 230.285 17.204 230.285 14.858 229.816C12.6684 229.347 9.46221 227.94 7.58541 226.611C5.78681 225.36 3.3626 222.624 2.1114 220.592C0.3128 217.387 0 215.98 0 210.899C0 205.662 0.3128 204.567 2.4242 201.128C3.8318 198.783 6.17781 196.438 8.60201 194.953C11.9646 192.92 13.0594 192.608 18.2988 192.608C21.5832 192.608 24.9458 192.842 25.806 193.155C27.1354 193.702 32.2184 188.934 88.0533 133.199L85.9419 128.9C84.7689 126.555 83.5177 122.334 83.0485 119.52C82.5011 115.846 82.5011 113.11 83.2049 109.749C83.6741 107.169 84.9253 103.183 86.0201 100.994C87.1149 98.727 89.9301 94.8967 92.2761 92.5517C94.6221 90.2066 98.4539 87.3925 100.644 86.2982C102.911 85.2038 106.9 83.9531 109.48 83.4841C112.843 82.7806 115.58 82.7806 119.255 83.3278C122.07 83.7968 126.293 85.0475 132.94 88.3306L193.623 27.6717L192.763 25.3266C192.294 23.9978 191.903 20.9492 191.903 18.526C191.981 15.1647 192.529 12.976 194.093 10.0056C195.344 7.7387 197.533 5.00279 199.019 3.90843Z" fill="#E1DBFD"/>
<path d="M146.782 146.41C153.35 139.844 159.294 134.372 159.919 134.137C160.545 133.903 161.249 133.668 161.483 133.668C161.718 133.59 198.785 148.364 243.984 166.421C289.106 184.478 326.72 199.643 327.424 200.19C328.206 200.737 334.696 216.605 355.185 269.995L376.221 280.704C387.794 286.566 397.882 292.194 398.664 293.211C399.446 294.227 400.072 295.868 399.993 296.963C399.993 298.448 388.889 310.017 349.711 349.179C319.135 379.821 298.724 399.598 297.551 399.911C296.457 400.145 294.736 399.911 293.641 399.285C292.234 398.504 288.558 392.094 269.79 355.355L235.382 342.144C216.38 334.875 200.505 328.386 199.958 327.605C199.41 326.901 184.239 289.38 166.097 244.199C138.18 174.472 133.409 161.809 134.035 160.168C134.426 159.073 140.135 152.898 146.782 146.41Z" fill="#E1DBFD"/>
<path fill-rule="evenodd" clip-rule="evenodd" d="M215.129 14.2266C213.956 13.2104 212.079 12.4287 210.75 12.4287C209.186 12.4287 207.622 13.1322 206.449 14.3829C205.197 15.6336 204.546 17.197 204.494 19.073C204.494 20.9491 205.041 22.3561 206.449 23.7632C207.7 25.0139 209.264 25.7174 210.75 25.7174C212.079 25.7174 213.956 24.9357 215.129 23.9977C216.693 22.5906 217.162 21.4963 217.162 19.073C217.162 16.6498 216.693 15.5555 215.129 14.2266ZM120.428 96.46C118.317 95.7565 115.658 95.2875 114.563 95.2875C113.469 95.2875 110.653 95.991 108.307 96.8509C105.414 97.7889 102.912 99.4304 100.8 101.697C98.6888 103.886 97.1248 106.466 96.2646 109.358C95.5608 111.703 95.0134 114.361 95.0134 115.22C95.0134 116.08 95.4826 118.504 96.1864 120.692C96.812 122.803 98.4542 126.008 99.8618 127.649C101.269 129.369 104.241 131.558 106.352 132.574C109.089 133.825 111.67 134.372 114.954 134.372C117.77 134.372 120.898 133.746 122.774 132.887C124.495 132.105 127.075 130.307 128.561 128.822C130.047 127.337 131.846 124.757 132.628 123.037C133.488 121.161 134.113 118.035 134.113 115.22C134.113 111.937 133.566 109.358 132.315 106.622C131.298 104.433 129.109 101.541 127.388 100.134C125.746 98.7269 122.618 97.0854 120.428 96.46ZM384.745 114.83C370.825 100.916 366.602 96.8509 366.368 96.8509C366.133 96.8509 361.91 100.916 356.984 105.84L347.991 114.83L366.368 133.199L384.745 114.83ZM23.4603 206.678C22.1309 205.349 20.6451 204.724 18.7683 204.724C17.0479 204.724 15.4057 205.349 14.4673 206.287C13.5289 207.225 12.9033 208.867 12.9033 210.586C12.9033 212.462 13.5289 213.947 14.8583 215.276C16.1095 216.527 17.6735 217.231 19.1593 217.231C20.7233 217.231 22.2873 216.527 23.4603 215.276C24.7115 214.104 25.4153 212.384 25.4153 210.977C25.4153 209.492 24.7115 207.928 23.4603 206.678ZM269.791 238.883C267.601 238.102 263.847 237.554 261.189 237.633C258.608 237.633 255.402 238.023 254.151 238.336C252.899 238.727 250.084 240.212 247.895 241.619C245.783 243.026 242.812 245.918 241.404 248.107C239.996 250.218 238.511 253.266 238.12 254.752C237.65 256.237 237.338 259.442 237.338 261.787C237.338 264.132 237.963 267.806 238.667 269.994C239.449 272.261 241.56 275.544 243.672 277.811C245.783 280.078 248.989 282.501 251.492 283.674C254.776 285.159 257.044 285.628 261.58 285.628C266.35 285.628 268.227 285.237 271.746 283.518C274.092 282.423 277.454 279.922 279.096 278.046C280.817 276.248 282.928 273.121 283.788 271.167C284.883 268.666 285.352 265.93 285.352 261.787C285.352 257.175 284.961 254.986 283.476 251.703C282.303 249.202 279.878 245.997 277.611 243.886C275.343 241.776 272.058 239.665 269.791 238.883ZM355.263 284.768L351.588 283.049L282.537 352.072C294.345 375.678 297.864 382.714 298.099 382.948C298.255 383.183 317.414 364.344 340.562 341.128C363.787 317.912 382.477 298.682 382.164 298.448C381.851 298.135 376.534 295.321 370.278 292.194L370.273 292.192C364.018 289.066 357.296 285.706 355.263 284.768ZM133.41 366.142L114.954 347.772L96.2646 366.533L114.642 384.902L133.41 366.142Z" fill="black"/>
<path d="M163.829 147.895C164.455 148.051 199.489 162.044 241.639 178.928C283.788 195.734 318.431 209.883 318.666 210.195C318.9 210.508 324.531 224.969 343.299 273.59L273.388 343.473L241.951 331.357C224.747 324.712 210.28 319.084 209.968 318.85C209.655 318.615 195.344 283.439 147.251 162.903L150.535 159.777L231.238 240.29L229.283 243.808C228.188 245.762 226.702 249.436 225.999 252.016C225.373 254.595 224.826 258.973 224.826 261.787C224.826 264.601 225.295 268.666 225.92 270.776C226.468 272.887 227.954 276.639 229.127 278.984C230.3 281.329 233.271 285.237 235.695 287.661C238.198 290.084 242.264 293.054 245.158 294.539C248.207 296.025 252.587 297.353 256.106 297.901C260.641 298.604 263.222 298.604 267.445 297.822C270.494 297.353 275.186 295.79 277.923 294.383C280.817 292.976 284.883 290.006 287.307 287.504C289.81 285.081 292.781 281.016 294.189 278.124C295.597 275.388 297.161 270.698 297.63 267.649C298.412 263.428 298.412 260.849 297.708 256.315C297.239 253.032 295.831 248.342 294.502 245.762C293.251 243.183 290.514 239.118 288.324 236.773C286.056 234.193 282.459 231.379 279.487 229.816C276.75 228.331 272.762 226.689 270.573 226.064C268.461 225.516 264.395 225.047 261.58 225.047C258.764 225.047 254.385 225.595 251.805 226.22C249.224 226.923 245.549 228.409 240.075 231.457L159.528 150.865L161.092 149.224C161.953 148.286 163.126 147.739 163.829 147.895Z" fill="black"/>
</svg>
