<svg width="400" height="400" viewBox="0 0 400 400" fill="none" xmlns="http://www.w3.org/2000/svg">
<path fill-rule="evenodd" clip-rule="evenodd" d="M155.312 0.0779513C165.547 -0.000173704 171.016 0.390451 178.281 1.56233C183.594 2.49983 191.25 4.06233 195.312 5.15608C199.375 6.1717 205.703 8.20295 209.375 9.53108C213.047 10.8592 218.984 13.3592 222.656 14.9998C226.328 16.7186 232.266 19.9217 235.938 22.1092C239.609 24.2967 245.938 28.5155 250 31.5623C254.062 34.5311 261.484 41.0936 266.484 46.0155C271.406 51.0155 277.969 58.4373 280.938 62.4998C283.984 66.5623 288.203 72.8904 290.391 76.5623C292.578 80.2342 295.781 86.1717 297.5 89.8436C299.141 93.5154 301.641 99.4529 302.969 103.125C304.297 106.797 306.328 113.125 307.344 117.187C308.438 121.25 309.922 128.125 310.703 132.422C311.641 138.125 312.031 144.609 312.031 156.25C312.031 167.89 311.641 174.375 310.703 180.078C309.922 184.375 308.281 191.953 306.953 196.875C305.703 201.797 303.359 209.062 301.797 212.89C300.312 216.719 297.578 222.734 295.859 226.172C294.141 229.609 291.328 234.609 286.328 242.344L340.312 296.328C381.875 337.89 394.844 351.328 396.328 354.297C397.422 356.484 398.75 360.469 399.297 363.281C400.078 367.344 400.078 369.453 399.297 373.828C398.75 376.875 397.422 381.094 396.328 383.203C395.156 385.39 392.5 388.906 390.234 391.015C388.047 393.203 384.297 395.781 381.953 396.797C379.688 397.812 377.109 398.906 376.328 399.297C375.625 399.687 372.188 400 368.75 400C365.312 400 361.875 399.687 361.094 399.297C360.391 398.906 357.812 397.812 355.469 396.797C351.641 395.234 345.234 389.062 242.344 286.328L237.344 289.531C234.609 291.328 229.609 294.14 226.172 295.859C222.734 297.578 216.719 300.312 212.891 301.797C209.062 303.359 201.797 305.703 196.875 306.953C191.953 308.281 184.375 309.922 180.078 310.703C174.375 311.64 167.891 312.031 156.25 312.031C144.609 312.031 138.125 311.64 132.422 310.703C128.125 309.922 121.25 308.437 117.187 307.344C113.125 306.328 106.797 304.297 103.125 302.969C99.4531 301.64 93.5156 299.14 89.8438 297.5C86.1719 295.781 80.2344 292.578 76.5625 290.39C72.8906 288.203 66.5625 283.984 62.5 280.937C58.4375 277.969 51.0156 271.406 46.0156 266.484C41.0938 261.484 34.5313 254.062 31.5625 250C28.5156 245.937 24.2969 239.609 22.1094 235.937C19.9219 232.265 16.7188 226.328 15 222.656C13.3594 218.984 10.8594 213.047 9.53125 209.375C8.20312 205.703 6.17188 199.375 5.15625 195.312C4.0625 191.25 2.57812 184.375 1.79688 180.078C0.859375 174.375 0.46875 167.89 0.46875 156.25C0.46875 144.609 0.859375 138.125 1.79688 132.422C2.57812 128.125 4.0625 121.25 5.15625 117.187C6.17188 113.125 8.20312 106.797 9.53125 103.125C10.8594 99.4529 13.3594 93.5154 15 89.8436C16.7188 86.1717 19.9219 80.2342 22.1094 76.5623C24.2969 72.8904 28.5156 66.5623 31.5625 62.4998C34.5313 58.4373 41.0938 51.0155 46.0156 46.0155C51.0156 41.0936 58.4375 34.5311 62.5 31.5623C66.5625 28.5155 72.8906 24.2967 76.5625 22.1092C80.2344 19.9217 86.1719 16.7186 89.8438 14.9998C93.5156 13.3592 99.4531 10.8592 103.125 9.53108C106.797 8.20295 112.578 6.32795 116.016 5.39045C119.453 4.45295 126.641 2.89045 132.031 1.95295C139.453 0.624826 145.078 0.156076 155.312 0.0779513ZM136.328 17.2655C132.891 17.7342 126.562 18.9842 122.266 19.9998C117.969 21.0936 111.172 23.203 107.266 24.6873C103.281 26.0936 97.1094 28.8279 93.5938 30.5467C90 32.3436 84.8438 35.2342 82.0312 36.9529C79.2188 38.7498 74.1406 42.2655 70.7031 44.8436C67.2656 47.4998 61.0938 52.9686 57.0312 57.0311C52.9688 61.0936 47.5 67.2654 44.8438 70.7029C42.2656 74.1404 38.75 79.2186 36.9531 82.0311C35.2344 84.8436 32.3438 89.9998 30.5469 93.5936C28.8281 97.1092 26.0938 103.281 24.6875 107.265C23.2031 111.172 21.0938 117.969 20 122.265C18.9844 126.562 17.6562 132.89 17.1094 136.328C16.5625 139.765 16.0938 148.75 16.0938 156.25C16.0938 163.75 16.5625 172.734 17.1094 176.172C17.6562 179.609 18.9844 185.937 20 190.234C21.0938 194.531 23.2031 201.328 24.6875 205.312C26.0938 209.219 28.8281 215.39 30.5469 218.984C32.3438 222.5 35.2344 227.656 36.9531 230.469C38.75 233.281 42.2656 238.359 44.8438 241.797C47.5 245.234 52.9688 251.406 57.0312 255.469C61.0938 259.531 67.2656 265 70.7031 267.656C74.1406 270.234 79.2188 273.75 82.0312 275.547C84.8438 277.265 90 280.156 93.5938 281.953C97.1094 283.672 103.281 286.406 107.266 287.812C111.172 289.297 117.969 291.406 122.266 292.5C126.562 293.515 132.734 294.765 135.938 295.312C139.141 295.781 146.562 296.328 152.344 296.562C159.687 296.875 165.859 296.64 172.656 295.781C178.047 295.156 186.094 293.672 190.625 292.5C195.156 291.328 201.797 289.297 205.469 287.89C209.141 286.484 215.312 283.75 219.141 281.875C222.969 279.922 229.844 275.859 234.375 272.812C238.906 269.765 245.781 264.531 249.609 261.094C253.438 257.656 259.062 252.031 262.109 248.515C265.156 245 269.766 238.828 272.5 234.922C275.156 230.937 279.141 224.375 281.25 220.312C283.359 216.25 286.25 209.765 287.734 205.859C289.219 202.031 291.328 195.156 292.5 190.625C293.672 186.094 295.156 178.047 295.781 172.656C296.641 165.859 296.875 159.687 296.562 152.344C296.328 146.562 295.781 139.14 295.312 135.937C294.766 132.734 293.516 126.562 292.5 122.265C291.406 117.969 289.297 111.172 287.812 107.265C286.406 103.281 283.672 97.1092 281.953 93.5936C280.156 89.9998 277.266 84.8436 275.547 82.0311C273.75 79.2186 270.234 74.1404 267.656 70.7029C265 67.2654 259.531 61.0936 255.469 57.0311C251.406 52.9686 245.234 47.4998 241.797 44.8436C238.359 42.2655 233.281 38.7498 230.469 36.9529C227.656 35.2342 222.5 32.3436 218.906 30.5467C215.391 28.8279 209.219 26.0936 205.312 24.6873C201.328 23.203 194.531 21.0936 190.234 19.9998C185.938 18.9842 179.766 17.7342 176.562 17.1873C173.359 16.7186 165.781 16.1717 159.766 16.0936C153.75 15.9373 147.422 15.9373 145.703 16.0936C143.984 16.2498 139.766 16.7967 136.328 17.2655ZM255.312 277.734L277.266 299.609C286.094 291.172 291.094 286.172 294.141 282.969L299.609 277.265C282.656 260.39 277.578 255.469 277.344 255.547C277.109 255.547 272.109 260.547 266.094 266.64L255.312 277.734ZM288.516 310.547C357.188 379.297 360.938 382.812 364.141 383.594C366.094 384.14 369.219 384.375 371.172 384.062C373.047 383.828 375.859 382.734 377.422 381.64C378.906 380.625 381.016 378.437 382.109 376.875C383.672 374.453 384.062 373.047 384.062 368.75C384.062 364.375 383.75 363.125 381.875 360.469C380.703 358.828 364.219 341.953 345.156 322.969L310.625 288.515L288.516 310.547ZM155.156 31.3279C158.594 31.2498 164.609 31.5623 168.594 32.0311C172.578 32.4217 178.594 33.3592 181.875 33.9842C185.234 34.6873 191.641 36.4842 196.172 37.9686C200.625 39.5311 207.188 42.1873 210.625 43.9061C214.062 45.6248 218.984 48.2811 221.562 49.8436C224.141 51.3279 228.828 54.6092 232.109 57.0311C235.312 59.4529 240.859 64.4529 244.531 68.0467C248.125 71.6404 253.047 77.1873 255.469 80.4686C257.891 83.6717 261.172 88.4373 262.734 91.0154C264.219 93.5936 266.953 98.5154 268.594 101.953C270.312 105.39 272.969 111.875 274.531 116.406C276.016 120.859 277.891 127.187 278.516 130.469C279.219 133.672 280.156 140.703 280.625 146.094C281.328 153.515 281.328 158.203 280.625 166.015C280.156 171.562 279.219 178.75 278.516 182.031C277.891 185.234 276.016 191.562 274.531 196.094C272.969 200.547 270.312 207.109 268.594 210.547C266.953 213.984 264.219 218.906 262.734 221.484C261.172 224.062 257.891 228.75 255.469 232.031C253.047 235.234 248.125 240.781 244.531 244.375C240.859 248.047 235.312 252.969 232.109 255.39C228.828 257.812 224.141 261.094 221.562 262.656C218.984 264.14 214.062 266.797 210.625 268.515C207.188 270.234 200.625 272.89 196.172 274.453C191.641 275.937 185.312 277.734 182.109 278.437C178.828 279.14 171.641 280.078 166.094 280.547C158.281 281.25 153.594 281.25 146.172 280.547C140.781 280.078 133.75 279.14 130.547 278.437C127.266 277.734 120.938 275.937 116.484 274.453C111.953 272.89 105.469 270.234 102.031 268.515C98.5938 266.797 93.6719 264.14 91.0938 262.656C88.5156 261.094 83.75 257.812 80.5469 255.39C77.2656 252.969 71.7188 248.047 68.125 244.375C64.5312 240.781 59.5312 235.234 57.1094 232.031C54.6875 228.75 51.4063 224.062 49.9219 221.484C48.3594 218.906 45.7031 213.984 43.9844 210.547C42.2656 207.109 39.6094 200.547 38.125 196.094C36.5625 191.562 34.7656 185.234 34.0625 182.031C33.4375 178.75 32.4219 171.719 31.9531 166.406C31.25 158.906 31.25 154.219 31.9531 146.484C32.4219 140.859 33.4375 133.672 34.0625 130.469C34.7656 127.187 36.5625 120.859 38.125 116.406C39.6094 111.875 42.2656 105.39 43.9844 101.953C45.7031 98.5154 48.3594 93.5936 49.9219 91.0154C51.4063 88.4373 54.6875 83.6717 57.1094 80.4686C59.5312 77.1873 64.5312 71.6404 68.125 68.0467C71.7188 64.4529 77.2656 59.4529 80.5469 57.0311C83.75 54.6092 88.5156 51.3279 91.0938 49.8436C93.6719 48.2811 98.5938 45.6248 102.031 43.9061C105.469 42.1873 111.953 39.5311 116.484 37.9686C120.938 36.4842 127.656 34.6092 131.328 33.9061C134.922 33.203 140.391 32.3436 143.438 32.0311C146.406 31.7186 151.719 31.4061 155.156 31.3279ZM126.25 51.1717C122.344 52.3436 115.703 54.8436 111.406 56.7186C107.109 58.5936 100.078 62.4998 95.7812 65.3904C90.7812 68.6717 84.8438 73.6717 79.2969 79.2186C73.2031 85.2342 68.9062 90.4686 65 96.4842C61.875 101.172 57.8125 108.75 55.9375 113.281C54.0625 117.734 51.6406 124.765 50.5469 128.906C49.4531 132.969 48.2031 140.703 47.6562 146.094C46.7969 153.984 46.7969 157.734 47.6562 166.015C48.2031 171.562 49.4531 179.453 50.5469 183.594C51.6406 187.656 54.0625 194.687 55.9375 199.219C57.8125 203.672 61.875 211.25 65 216.015C68.9062 221.953 73.2812 227.187 79.2969 233.281C85.3125 239.297 90.5469 243.594 96.5625 247.5C101.25 250.625 108.828 254.687 113.359 256.562C117.812 258.515 124.844 260.937 128.984 261.953C133.047 263.047 140.938 264.375 146.562 264.922C154.766 265.703 158.516 265.703 166.484 264.922C171.797 264.375 179.531 263.047 183.672 261.953C187.734 260.937 194.766 258.515 199.297 256.562C203.75 254.687 211.328 250.625 216.094 247.5C222.031 243.594 227.266 239.297 233.359 233.281C239.375 227.187 243.672 221.953 247.656 216.015C250.703 211.25 254.766 203.672 256.641 199.219C258.594 194.687 261.016 187.656 262.031 183.594C263.125 179.453 264.453 171.562 265 166.015C265.781 157.734 265.781 153.984 265 146.094C264.453 140.703 263.125 132.969 262.031 128.906C261.016 124.765 258.594 117.734 256.641 113.281C254.766 108.75 250.703 101.172 247.656 96.4842C243.672 90.4686 239.375 85.2342 233.359 79.2186C227.812 73.6717 221.875 68.6717 216.875 65.3904C212.578 62.4998 205.547 58.5936 201.25 56.7186C196.953 54.8436 190.234 52.3436 186.406 51.2498C182.5 50.0779 175.469 48.6717 170.781 48.0467C166.016 47.4217 159.141 46.8748 155.547 46.9529C151.875 46.9529 145.391 47.4998 141.094 48.0467C136.797 48.6717 130.078 50.0779 126.25 51.1717ZM162.188 62.8123C166.016 63.0467 171.797 63.7498 175.078 64.4529C178.281 65.0779 183.516 66.5623 186.797 67.6561C190 68.7498 195.625 71.1717 199.297 73.0467C202.891 74.9217 208.906 78.7498 212.578 81.4842C216.172 84.2186 221.641 89.0623 224.609 92.2654C227.5 95.3904 231.641 100.469 233.672 103.515C235.703 106.484 238.594 111.406 240.078 114.453C241.641 117.422 243.203 121.328 243.672 123.047C244.297 125.469 244.297 126.719 243.359 128.672C242.734 130.156 241.25 131.64 239.687 132.344C238.281 132.969 236.25 133.281 235.234 133.047C234.141 132.734 232.578 132.031 231.797 131.328C231.016 130.625 228.75 126.875 226.875 123.047C224.922 119.14 222.578 114.922 221.719 113.672C220.859 112.344 218.125 108.906 215.781 105.937C213.359 102.969 208.594 98.2811 205.156 95.5467C201.719 92.8123 195.859 88.9842 192.266 87.1092C188.594 85.2342 182.734 82.8123 179.141 81.7186C175.625 80.5467 169.297 79.2967 165.078 78.8279C160.938 78.3592 156.328 77.8123 154.922 77.6561C153.359 77.4217 151.641 76.4061 150.469 74.9998C149.375 73.6717 148.516 71.6404 148.438 70.4686C148.438 69.2967 149.141 67.3436 150.078 66.0936C150.938 64.9217 152.5 63.5936 153.437 63.203C154.375 62.8123 158.281 62.6561 162.188 62.8123ZM242.812 148.437C243.828 148.437 245.703 149.453 247.109 150.703C249.219 152.578 249.688 153.515 249.688 156.25C249.688 158.984 249.219 159.844 246.953 161.875C244.609 163.828 243.75 164.14 241.484 163.75C239.844 163.515 237.891 162.344 236.562 160.937C235.391 159.609 234.453 157.656 234.375 156.406C234.375 155.234 235.078 153.281 236.016 152.031C236.875 150.859 238.437 149.531 239.375 149.14C240.312 148.828 241.875 148.515 242.812 148.437Z" fill="black"/>
<path d="M288.516 310.547C357.188 379.297 360.938 382.812 364.141 383.594C366.094 384.14 369.219 384.375 371.172 384.062C373.047 383.828 375.859 382.734 377.422 381.64C378.906 380.625 381.016 378.437 382.109 376.875C383.672 374.453 384.062 373.047 384.062 368.75C384.062 364.375 383.75 363.125 381.875 360.469C380.703 358.828 364.219 341.953 345.156 322.969L310.625 288.515L288.516 310.547Z" fill="#FFB84F"/>
<path d="M255.312 277.734L277.266 299.609C286.094 291.172 291.094 286.172 294.141 282.969L299.609 277.265C282.656 260.39 277.578 255.469 277.344 255.547C277.109 255.547 272.109 260.547 266.094 266.64L255.312 277.734Z" fill="#FFB84F"/>
<path fill-rule="evenodd" clip-rule="evenodd" d="M136.328 17.2655C132.891 17.7342 126.562 18.9842 122.266 19.9998C117.969 21.0936 111.172 23.203 107.266 24.6873C103.281 26.0936 97.1094 28.8279 93.5938 30.5467C90 32.3436 84.8438 35.2342 82.0312 36.9529C79.2188 38.7498 74.1406 42.2655 70.7031 44.8436C67.2656 47.4998 61.0938 52.9686 57.0312 57.0311C52.9688 61.0936 47.5 67.2654 44.8438 70.7029C42.2656 74.1404 38.75 79.2186 36.9531 82.0311C35.2344 84.8436 32.3438 89.9998 30.5469 93.5936C28.8281 97.1092 26.0938 103.281 24.6875 107.265C23.2031 111.172 21.0938 117.969 20 122.265C18.9844 126.562 17.6562 132.89 17.1094 136.328C16.5625 139.765 16.0938 148.75 16.0938 156.25C16.0938 163.75 16.5625 172.734 17.1094 176.172C17.6562 179.609 18.9844 185.937 20 190.234C21.0938 194.531 23.2031 201.328 24.6875 205.312C26.0938 209.219 28.8281 215.39 30.5469 218.984C32.3438 222.5 35.2344 227.656 36.9531 230.469C38.75 233.281 42.2656 238.359 44.8438 241.797C47.5 245.234 52.9688 251.406 57.0312 255.469C61.0938 259.531 67.2656 265 70.7031 267.656C74.1406 270.234 79.2188 273.75 82.0312 275.547C84.8438 277.265 90 280.156 93.5938 281.953C97.1094 283.672 103.281 286.406 107.266 287.812C111.172 289.297 117.969 291.406 122.266 292.5C126.562 293.515 132.734 294.765 135.938 295.312C139.141 295.781 146.562 296.328 152.344 296.562C159.687 296.875 165.859 296.64 172.656 295.781C178.047 295.156 186.094 293.672 190.625 292.5C195.156 291.328 201.797 289.297 205.469 287.89C209.141 286.484 215.312 283.75 219.141 281.875C222.969 279.922 229.844 275.859 234.375 272.812C238.906 269.765 245.781 264.531 249.609 261.094C253.438 257.656 259.062 252.031 262.109 248.515C265.156 245 269.766 238.828 272.5 234.922C275.156 230.937 279.141 224.375 281.25 220.312C283.359 216.25 286.25 209.765 287.734 205.859C289.219 202.031 291.328 195.156 292.5 190.625C293.672 186.094 295.156 178.047 295.781 172.656C296.641 165.859 296.875 159.687 296.562 152.344C296.328 146.562 295.781 139.14 295.312 135.937C294.766 132.734 293.516 126.562 292.5 122.265C291.406 117.969 289.297 111.172 287.812 107.265C286.406 103.281 283.672 97.1092 281.953 93.5936C280.156 89.9998 277.266 84.8436 275.547 82.0311C273.75 79.2186 270.234 74.1404 267.656 70.7029C265 67.2654 259.531 61.0936 255.469 57.0311C251.406 52.9686 245.234 47.4998 241.797 44.8436C238.359 42.2655 233.281 38.7498 230.469 36.9529C227.656 35.2342 222.5 32.3436 218.906 30.5467C215.391 28.8279 209.219 26.0936 205.312 24.6873C201.328 23.203 194.531 21.0936 190.234 19.9998C185.938 18.9842 179.766 17.7342 176.562 17.1873C173.359 16.7186 165.781 16.1717 159.766 16.0936C153.75 15.9373 147.422 15.9373 145.703 16.0936C143.984 16.2498 139.766 16.7967 136.328 17.2655ZM168.594 32.0311C164.609 31.5623 158.594 31.2498 155.156 31.3279C151.719 31.4061 146.406 31.7186 143.438 32.0311C140.391 32.3436 134.922 33.203 131.328 33.9061C127.656 34.6092 120.938 36.4842 116.484 37.9686C111.953 39.5311 105.469 42.1873 102.031 43.9061C98.5938 45.6248 93.6719 48.2811 91.0938 49.8436C88.5156 51.3279 83.75 54.6092 80.5469 57.0311C77.2656 59.4529 71.7188 64.4529 68.125 68.0467C64.5312 71.6404 59.5312 77.1873 57.1094 80.4686C54.6875 83.6717 51.4063 88.4373 49.9219 91.0154C48.3594 93.5936 45.7031 98.5154 43.9844 101.953C42.2656 105.39 39.6094 111.875 38.125 116.406C36.5625 120.859 34.7656 127.187 34.0625 130.469C33.4375 133.672 32.4219 140.859 31.9531 146.484C31.25 154.219 31.25 158.906 31.9531 166.406C32.4219 171.719 33.4375 178.75 34.0625 182.031C34.7656 185.234 36.5625 191.562 38.125 196.094C39.6094 200.547 42.2656 207.109 43.9844 210.547C45.7031 213.984 48.3594 218.906 49.9219 221.484C51.4063 224.062 54.6875 228.75 57.1094 232.031C59.5312 235.234 64.5312 240.781 68.125 244.375C71.7188 248.047 77.2656 252.969 80.5469 255.39C83.75 257.812 88.5156 261.094 91.0938 262.656C93.6719 264.14 98.5938 266.797 102.031 268.515C105.469 270.234 111.953 272.89 116.484 274.453C120.938 275.937 127.266 277.734 130.547 278.437C133.75 279.14 140.781 280.078 146.172 280.547C153.594 281.25 158.281 281.25 166.094 280.547C171.641 280.078 178.828 279.14 182.109 278.437C185.312 277.734 191.641 275.937 196.172 274.453C200.625 272.89 207.188 270.234 210.625 268.515C214.062 266.797 218.984 264.14 221.562 262.656C224.141 261.094 228.828 257.812 232.109 255.39C235.312 252.969 240.859 248.047 244.531 244.375C248.125 240.781 253.047 235.234 255.469 232.031C257.891 228.75 261.172 224.062 262.734 221.484C264.219 218.906 266.953 213.984 268.594 210.547C270.312 207.109 272.969 200.547 274.531 196.094C276.016 191.562 277.891 185.234 278.516 182.031C279.219 178.75 280.156 171.562 280.625 166.015C281.328 158.203 281.328 153.515 280.625 146.094C280.156 140.703 279.219 133.672 278.516 130.469C277.891 127.187 276.016 120.859 274.531 116.406C272.969 111.875 270.312 105.39 268.594 101.953C266.953 98.5154 264.219 93.5936 262.734 91.0154C261.172 88.4373 257.891 83.6717 255.469 80.4686C253.047 77.1873 248.125 71.6404 244.531 68.0467C240.859 64.4529 235.312 59.4529 232.109 57.0311C228.828 54.6092 224.141 51.3279 221.562 49.8436C218.984 48.2811 214.062 45.6248 210.625 43.9061C207.188 42.1873 200.625 39.5311 196.172 37.9686C191.641 36.4842 185.234 34.6873 181.875 33.9842C178.594 33.3592 172.578 32.4217 168.594 32.0311Z" fill="#FFB84F"/>
<path fill-rule="evenodd" clip-rule="evenodd" d="M126.25 51.1717C122.344 52.3436 115.703 54.8436 111.406 56.7186C107.109 58.5936 100.078 62.4998 95.7812 65.3904C90.7812 68.6717 84.8438 73.6717 79.2969 79.2186C73.2031 85.2342 68.9062 90.4686 65 96.4842C61.875 101.172 57.8125 108.75 55.9375 113.281C54.0625 117.734 51.6406 124.765 50.5469 128.906C49.4531 132.969 48.2031 140.703 47.6562 146.094C46.7969 153.984 46.7969 157.734 47.6562 166.015C48.2031 171.562 49.4531 179.453 50.5469 183.594C51.6406 187.656 54.0625 194.687 55.9375 199.219C57.8125 203.672 61.875 211.25 65 216.015C68.9062 221.953 73.2812 227.187 79.2969 233.281C85.3125 239.297 90.5469 243.594 96.5625 247.5C101.25 250.625 108.828 254.687 113.359 256.562C117.812 258.515 124.844 260.937 128.984 261.953C133.047 263.047 140.938 264.375 146.562 264.922C154.766 265.703 158.516 265.703 166.484 264.922C171.797 264.375 179.531 263.047 183.672 261.953C187.734 260.937 194.766 258.515 199.297 256.562C203.75 254.687 211.328 250.625 216.094 247.5C222.031 243.594 227.266 239.297 233.359 233.281C239.375 227.187 243.672 221.953 247.656 216.015C250.703 211.25 254.766 203.672 256.641 199.219C258.594 194.687 261.016 187.656 262.031 183.594C263.125 179.453 264.453 171.562 265 166.015C265.781 157.734 265.781 153.984 265 146.094C264.453 140.703 263.125 132.969 262.031 128.906C261.016 124.765 258.594 117.734 256.641 113.281C254.766 108.75 250.703 101.172 247.656 96.4842C243.672 90.4686 239.375 85.2342 233.359 79.2186C227.812 73.6717 221.875 68.6717 216.875 65.3904C212.578 62.4998 205.547 58.5936 201.25 56.7186C196.953 54.8436 190.234 52.3436 186.406 51.2498C182.5 50.0779 175.469 48.6717 170.781 48.0467C166.016 47.4217 159.141 46.8748 155.547 46.9529C151.875 46.9529 145.391 47.4998 141.094 48.0467C136.797 48.6717 130.078 50.0779 126.25 51.1717ZM175.078 64.4529C171.797 63.7498 166.016 63.0467 162.188 62.8123C158.281 62.6561 154.375 62.8123 153.437 63.203C152.5 63.5936 150.938 64.9217 150.078 66.0936C149.141 67.3436 148.438 69.2967 148.438 70.4686C148.516 71.6404 149.375 73.6717 150.469 74.9998C151.641 76.4061 153.359 77.4217 154.922 77.6561C156.328 77.8123 160.938 78.3592 165.078 78.8279C169.297 79.2967 175.625 80.5467 179.141 81.7186C182.734 82.8123 188.594 85.2342 192.266 87.1092C195.859 88.9842 201.719 92.8123 205.156 95.5467C208.594 98.2811 213.359 102.969 215.781 105.937C218.125 108.906 220.859 112.344 221.719 113.672C222.578 114.922 224.922 119.14 226.875 123.047C228.75 126.875 231.016 130.625 231.797 131.328C232.578 132.031 234.141 132.734 235.234 133.047C236.25 133.281 238.281 132.969 239.687 132.344C241.25 131.64 242.734 130.156 243.359 128.672C244.297 126.719 244.297 125.469 243.672 123.047C243.203 121.328 241.641 117.422 240.078 114.453C238.594 111.406 235.703 106.484 233.672 103.515C231.641 100.469 227.5 95.3904 224.609 92.2654C221.641 89.0623 216.172 84.2186 212.578 81.4842C208.906 78.7498 202.891 74.9217 199.297 73.0467C195.625 71.1717 190 68.7498 186.797 67.6561C183.516 66.5623 178.281 65.0779 175.078 64.4529ZM247.109 150.703C245.703 149.453 243.828 148.437 242.812 148.437C241.875 148.515 240.312 148.828 239.375 149.14C238.437 149.531 236.875 150.859 236.016 152.031C235.078 153.281 234.375 155.234 234.375 156.406C234.453 157.656 235.391 159.609 236.562 160.937C237.891 162.344 239.844 163.515 241.484 163.75C243.75 164.14 244.609 163.828 246.953 161.875C249.219 159.844 249.688 158.984 249.688 156.25C249.688 153.515 249.219 152.578 247.109 150.703Z" fill="white"/>
</svg>
