<svg width="400" height="400" viewBox="0 0 400 400" fill="none" xmlns="http://www.w3.org/2000/svg">
<path fill-rule="evenodd" clip-rule="evenodd" d="M185.938 357.031C186.406 356.172 187.734 354.922 189.062 354.297C191.016 353.281 196.641 353.125 224.609 353.125C250.859 353.125 257.734 352.891 257.5 352.188C257.344 351.641 256.484 347.969 255.547 344.141C254.688 340.312 253.75 335.781 253.125 331.25H148.438C61.0156 331.25 43.3594 331.094 41.5625 330.156C40.3906 329.609 38.9844 328.203 38.5156 327.031C37.7344 325.469 37.5 304.609 37.5 231.25C37.5 157.891 37.7344 137.031 38.5156 135.469C38.9844 134.297 40.3906 132.891 41.6406 132.344C43.4375 131.406 67.3438 131.25 190.625 131.25C313.906 131.25 337.812 131.406 339.688 132.344C340.859 132.891 342.266 134.297 342.812 135.469C343.516 137.031 343.75 150.938 343.75 255.469L347.5 256.328C349.531 256.797 354.453 258.672 365.625 264.062V109.375H217.188C92.5781 109.375 68.4375 109.219 66.5625 108.281C65.3906 107.734 63.9844 106.328 63.5156 105.156C62.9688 104.063 62.5 102.422 62.5 101.562C62.5 100.703 62.9688 99.0625 63.5156 97.9688C63.9844 96.7969 65.3906 95.3906 66.6406 94.8438C68.4375 93.9062 92.5781 93.75 365.625 93.75V52.3438L360.156 46.875H300.781L300.547 53.6719C300.391 58.4375 299.766 61.6406 298.75 64.0625C297.891 66.0156 295.938 68.9063 294.453 70.5469C292.969 72.2656 289.844 74.5312 287.5 75.625C283.984 77.3438 282.109 77.7344 277.344 77.7344C272.578 77.7344 270.703 77.3438 267.188 75.625C264.844 74.5312 261.719 72.2656 260.234 70.5469C258.75 68.9063 256.797 66.0156 255.938 64.0625C254.922 61.6406 254.297 58.4375 253.906 46.875H127.344L127.109 53.6719C126.953 58.4375 126.328 61.6406 125.312 64.0625C124.453 66.0156 122.5 68.9063 121.016 70.5469C119.531 72.2656 116.406 74.5312 114.062 75.625C110.547 77.3438 108.672 77.7344 103.906 77.7344C99.1406 77.7344 97.2656 77.3438 93.75 75.625C91.4062 74.5312 88.2812 72.2656 86.7969 70.5469C85.3125 68.9063 83.3594 66.0156 82.5 64.0625C81.4844 61.6406 80.8594 58.4375 80.4688 46.875H20.9375L15.625 52.3438V347.656L21.0938 353.125H132.812L135.391 355.391C136.488 356.403 137.129 357.165 137.487 358.07C141.229 357.402 152.813 357.076 154.688 357.031C156 357 157.5 357.5 159.5 357.5C161 357.5 160.25 357.578 161.5 357.5C162.75 357.5 163.5 357.031 166.5 357.031C170.5 357.5 183.148 356.059 185.592 357.913C185.693 357.57 185.81 357.266 185.938 357.031ZM42.8125 94.8438C41.5625 94.2188 39.8438 93.75 38.9062 93.75C37.8906 93.8281 36.3281 94.2969 35.3906 94.8438C34.5312 95.3906 33.2031 96.7188 32.5 97.7344C31.875 98.75 31.3281 100.391 31.25 101.406C31.25 102.344 31.7188 104.062 32.3438 105.312C32.8906 106.484 34.2969 107.891 35.4688 108.438C36.5625 108.906 38.2031 109.375 39.0625 109.375C39.9219 109.375 41.5625 108.906 42.6562 108.438C43.8281 107.891 45.2344 106.484 45.7812 105.312C46.4062 104.062 46.875 102.422 46.875 101.562C46.875 100.703 46.4063 99.0625 45.9375 97.9688C45.3906 96.7969 43.9844 95.3906 42.8125 94.8438Z" fill="#90C3CD"/>
<path d="M97.3438 19.6094C96.3281 21.1719 96.1719 24.5313 96.0938 38.8281C96.0938 52.1094 96.3281 56.7969 97.1875 58.3594C97.7344 59.6094 99.1406 61.0156 100.312 61.4844C101.406 62.0312 103.047 62.5 103.906 62.5C104.766 62.5 106.406 62.0312 107.5 61.4844C108.672 61.0156 110.078 59.6094 110.625 58.3594C111.484 56.7969 111.719 52.1094 111.719 39.0625C111.719 26.9531 111.406 21.25 110.781 19.8438C110.234 18.6719 108.828 17.2656 107.656 16.7188C106.406 16.0938 104.688 15.625 103.75 15.625C102.734 15.7031 101.172 16.1719 100.234 16.7188C99.375 17.2656 98.0469 18.5938 97.3438 19.6094Z" fill="#90C3CD"/>
<path d="M270.781 19.6094C269.766 21.1719 269.609 24.5313 269.531 38.8281C269.531 52.1094 269.766 56.7969 270.625 58.3594C271.172 59.6094 272.578 61.0156 273.75 61.4844C274.844 62.0312 276.484 62.5 277.344 62.5C278.203 62.5 279.844 62.0312 280.938 61.4844C282.109 61.0156 283.516 59.6094 284.062 58.3594C284.922 56.7969 285.156 52.1094 285.156 39.0625C285.156 26.9531 284.844 21.25 284.219 19.8438C283.672 18.6719 282.266 17.2656 281.094 16.7188C279.844 16.0938 278.125 15.625 277.188 15.625C276.172 15.7031 274.609 16.1719 273.672 16.7188C272.812 17.2656 271.484 18.5938 270.781 19.6094Z" fill="#90C3CD"/>
<path fill-rule="evenodd" clip-rule="evenodd" d="M114.219 2.5C110 0.3125 108.672 0 103.75 0.078125C98.9844 0.078125 97.3438 0.46875 93.75 2.42188C91.4062 3.67188 88.4375 5.70312 87.2656 6.875C86.0938 8.04688 84.1406 10.9375 82.9688 13.2812C81.4062 16.5625 80.7812 19.2188 80.4688 24.375L80.0781 31.1719C18.5156 31.6406 17.5 31.7188 14.0625 33.3594C12.1094 34.2969 9.0625 36.5625 7.1875 38.4375C5.3125 40.3125 3.04688 43.3594 2.10938 45.3125L0.390625 48.8281V351.172C3.04688 356.641 5.3125 359.687 7.1875 361.562C9.0625 363.438 12.1094 365.703 14.0625 366.641C17.5768 368.359 17.8123 368.359 75.1702 368.515L75.2344 368.516L132.812 368.75C137.422 364.609 137.891 363.594 137.891 360.938C137.891 359.716 137.791 358.841 137.487 358.07C137.129 357.165 136.488 356.403 135.391 355.391L132.812 353.125H21.0938L15.625 347.656V52.3438L20.9375 46.875H80.4688C80.8594 58.4375 81.4844 61.6406 82.5 64.0625C83.3594 66.0156 85.3125 68.9063 86.7969 70.5469C88.2812 72.2656 91.4062 74.5312 93.75 75.625C97.2656 77.3438 99.1406 77.7344 103.906 77.7344C108.672 77.7344 110.547 77.3438 114.062 75.625C116.406 74.5312 119.531 72.2656 121.016 70.5469C122.5 68.9063 124.453 66.0156 125.312 64.0625C126.328 61.6406 126.953 58.4375 127.109 53.6719L127.344 46.875H253.906C254.297 58.4375 254.922 61.6406 255.938 64.0625C256.797 66.0156 258.75 68.9063 260.234 70.5469C261.719 72.2656 264.844 74.5312 267.188 75.625C270.703 77.3438 272.578 77.7344 277.344 77.7344C282.109 77.7344 283.984 77.3438 287.5 75.625C289.844 74.5312 292.969 72.2656 294.453 70.5469C295.938 68.9063 297.891 66.0156 298.75 64.0625C299.766 61.6406 300.391 58.4375 300.547 53.6719L300.781 46.875H360.156L365.625 52.3438V93.75C92.5781 93.75 68.4375 93.9062 66.6406 94.8438C65.3906 95.3906 63.9844 96.7969 63.5156 97.9688C62.9688 99.0625 62.5 100.703 62.5 101.562C62.5 102.422 62.9688 104.063 63.5156 105.156C63.9844 106.328 65.3906 107.734 66.5625 108.281C68.4375 109.219 92.5781 109.375 217.188 109.375H365.625V264.062C354.453 258.672 349.531 256.797 347.5 256.328L343.75 255.469C343.75 150.938 343.516 137.031 342.812 135.469C342.266 134.297 340.859 132.891 339.688 132.344C337.812 131.406 313.906 131.25 190.625 131.25C67.3438 131.25 43.4375 131.406 41.6406 132.344C40.3906 132.891 38.9844 134.297 38.5156 135.469C37.7344 137.031 37.5 157.891 37.5 231.25C37.5 304.609 37.7344 325.469 38.5156 327.031C38.9844 328.203 40.3906 329.609 41.5625 330.156C43.3594 331.094 61.0156 331.25 148.438 331.25H253.125C253.75 335.781 254.688 340.312 255.547 344.141C256.484 347.969 257.344 351.641 257.5 352.188C257.734 352.891 250.859 353.125 224.609 353.125C196.641 353.125 191.016 353.281 189.062 354.297C187.734 354.922 186.406 356.172 185.938 357.031C185.81 357.266 185.693 357.57 185.592 357.913C185.322 358.83 185.156 360.028 185.156 360.938C185.156 362.188 185.469 363.984 185.938 364.844C186.406 365.703 187.734 366.953 189.062 367.578C191.016 368.594 197.109 368.75 228.516 368.75H265.625C276.797 380.391 282.344 385.312 285.156 387.188C287.969 388.984 292.891 391.719 296.094 393.203C299.297 394.766 305.547 396.875 309.922 397.969C316.172 399.531 319.922 400 326.562 400C333.203 400 336.953 399.531 343.125 397.969C347.578 396.875 353.594 394.844 356.641 393.438C359.688 392.031 364.062 389.688 366.406 388.203C368.75 386.641 373.125 383.203 376.094 380.391C379.062 377.656 383.203 373.125 385.312 370.312C387.5 367.5 390.703 362.031 392.578 358.203C394.453 354.375 396.875 347.578 397.969 343.203C399.531 336.953 400 333.203 400 326.406C400 319.531 399.531 315.781 398.047 309.766C396.953 305.469 394.531 298.75 392.656 294.922C390.781 291.094 387.422 285.547 385.234 282.656L381.25 277.344L380.859 48.8281C378.203 43.3594 376.094 40.3906 374.453 38.6719C372.813 36.9531 369.688 34.6094 367.578 33.5938L363.672 31.6406L301.172 31.1719C300.469 20.0781 299.688 16.25 298.75 14.0625C297.891 12.1094 296.094 9.29688 294.766 7.8125C293.516 6.32812 290.234 3.90625 287.656 2.57812C283.516 0.390625 282.031 0 277.344 0C272.656 0 271.172 0.390625 267.031 2.5C264.453 3.90625 261.172 6.32812 259.922 7.8125C258.594 9.29688 256.797 12.1094 255.938 14.0625C254.922 16.4844 254.297 19.6875 254.141 24.375L253.906 31.25H127.344C126.953 19.6875 126.328 16.4844 125.312 14.0625C124.453 12.1094 122.656 9.29688 121.328 7.8125C120.078 6.32812 116.797 3.90625 114.219 2.5ZM96.0938 38.8281C96.1719 24.5313 96.3281 21.1719 97.3438 19.6094C98.0469 18.5938 99.375 17.2656 100.234 16.7188C101.172 16.1719 102.734 15.7031 103.75 15.625C104.688 15.625 106.406 16.0938 107.656 16.7188C108.828 17.2656 110.234 18.6719 110.781 19.8438C111.406 21.25 111.719 26.9531 111.719 39.0625C111.719 52.1094 111.484 56.7969 110.625 58.3594C110.078 59.6094 108.672 61.0156 107.5 61.4844C106.406 62.0312 104.766 62.5 103.906 62.5C103.047 62.5 101.406 62.0312 100.312 61.4844C99.1406 61.0156 97.7344 59.6094 97.1875 58.3594C96.3281 56.7969 96.0938 52.1094 96.0938 38.8281ZM269.531 38.8281C269.609 24.5313 269.766 21.1719 270.781 19.6094C271.484 18.5938 272.812 17.2656 273.672 16.7188C274.609 16.1719 276.172 15.7031 277.188 15.625C278.125 15.625 279.844 16.0938 281.094 16.7188C282.266 17.2656 283.672 18.6719 284.219 19.8438C284.844 21.25 285.156 26.9531 285.156 39.0625C285.156 52.1094 284.922 56.7969 284.062 58.3594C283.516 59.6094 282.109 61.0156 280.938 61.4844C279.844 62.0312 278.203 62.5 277.344 62.5C276.484 62.5 274.844 62.0312 273.75 61.4844C272.578 61.0156 271.172 59.6094 270.625 58.3594C269.766 56.7969 269.531 52.1094 269.531 38.8281ZM95.3125 192.969H53.125V146.875H95.3125V192.969ZM153.906 192.969H110.938V146.875H153.906V192.969ZM211.719 192.969H169.531V146.875H211.719V192.969ZM270.312 192.969H227.344V146.875H270.312V192.969ZM328.125 192.969H285.938V146.875H328.125V192.969ZM95.3125 253.906H53.125V208.594H95.3125V253.906ZM153.906 253.906H110.938V208.594H153.906V253.906ZM211.719 253.906H169.531V208.594H211.719V253.906ZM270.312 253.906H227.344V208.594H270.312V253.906ZM321.719 253.281C318.125 253.672 308.672 253.906 285.938 253.906V208.594H328.125V252.734L321.719 253.281ZM292.188 280.156C294.531 278.438 299.297 275.703 302.734 274.141C306.172 272.5 311.484 270.625 314.453 270C318.203 269.141 322.578 268.906 328.516 269.062C334.453 269.297 338.75 269.922 342.578 271.094C345.625 272.031 350.859 274.297 354.297 276.016C358.984 278.438 362.266 280.938 367.188 285.938C372.188 290.859 374.688 294.141 377.109 298.828C378.906 302.266 381.172 307.734 382.109 310.938C383.672 315.781 383.984 318.516 383.984 326.562C383.984 334.609 383.672 337.344 382.109 342.188C381.172 345.391 378.906 350.859 377.109 354.297C374.688 358.906 372.109 362.266 367.188 367.188C362.266 372.109 358.906 374.688 354.297 377.109C350.859 378.906 345.391 381.172 342.188 382.109C337.344 383.672 334.609 383.984 326.562 383.984C318.516 383.984 315.781 383.672 310.938 382.109C307.734 381.094 302.969 379.219 300.391 377.891C297.812 376.641 293.984 374.219 291.797 372.656C289.688 371.094 285.859 367.5 283.359 364.766C280.859 362.031 277.5 357.109 275.859 353.906C274.141 350.703 272.031 345.625 271.094 342.578C270.156 339.453 269.219 333.906 268.984 329.688C268.672 324.375 268.906 320.391 269.844 315.625C270.703 311.328 272.5 306.25 275 301.172C277.5 295.938 280.234 291.719 283.359 288.359C285.859 285.625 289.844 281.953 292.188 280.156ZM95.3125 315.625H53.125V269.531H95.3125V315.625ZM153.906 315.625H110.938V269.531H153.906V315.625ZM211.719 315.625H169.531V269.531H211.719V315.625ZM253.906 315.625H227.344V269.531H270.312V274.453C270.312 278.906 270.078 279.609 267.109 283.594C265.312 285.938 262.344 291.094 260.547 294.922C258.672 298.75 256.641 304.062 256.016 306.641C255.391 309.219 254.609 312.266 253.906 315.625Z" fill="white"/>
<path fill-rule="evenodd" clip-rule="evenodd" d="M302.734 274.141C299.297 275.703 294.531 278.438 292.188 280.156C289.844 281.953 285.859 285.625 283.359 288.359C280.234 291.719 277.5 295.938 275 301.172C272.5 306.25 270.703 311.328 269.844 315.625C268.906 320.391 268.672 324.375 268.984 329.688C269.219 333.906 270.156 339.453 271.094 342.578C272.031 345.625 274.141 350.703 275.859 353.906C277.5 357.109 280.859 362.031 283.359 364.766C285.859 367.5 289.688 371.094 291.797 372.656C293.984 374.219 297.812 376.641 300.391 377.891C302.969 379.219 307.734 381.094 310.938 382.109C315.781 383.672 318.516 383.984 326.562 383.984C334.609 383.984 337.344 383.672 342.188 382.109C345.391 381.172 350.859 378.906 354.297 377.109C358.906 374.688 362.266 372.109 367.188 367.188C372.109 362.266 374.688 358.906 377.109 354.297C378.906 350.859 381.172 345.391 382.109 342.188C383.672 337.344 383.984 334.609 383.984 326.562C383.984 318.516 383.672 315.781 382.109 310.938C381.172 307.734 378.906 302.266 377.109 298.828C374.688 294.141 372.188 290.859 367.188 285.938C362.266 280.938 358.984 278.438 354.297 276.016C350.859 274.297 345.625 272.031 342.578 271.094C338.75 269.922 334.453 269.297 328.516 269.062C322.578 268.906 318.203 269.141 314.453 270C311.484 270.625 306.172 272.5 302.734 274.141ZM359.609 307.422C358.047 305.938 356.562 305.391 354.375 305.469C351.562 305.469 350.625 306.172 338.203 318.594L325 331.641C316.25 322.969 312.891 320.078 311.953 319.609C310.938 319.141 309.219 318.75 308.125 318.75C306.953 318.75 305 319.688 303.594 321.016C301.641 322.891 301.172 323.906 301.172 326.484C301.172 329.531 301.641 330.156 311.562 340C321.406 349.922 322.031 350.391 325 350.391C328.122 350.391 328.671 349.845 344.959 333.635L345 333.594C354.219 324.375 361.953 316.094 362.188 315.234C362.5 314.375 362.422 312.734 362.188 311.562C361.953 310.312 360.781 308.516 359.609 307.422Z" fill="#90C3CD"/>
</svg>
